<?xml version="1.0" encoding="UTF-8" standalone="no"?>
<svg
   viewBox="0 0 177.778 100"
   version="1.1"
   id="svg28"
   sodipodi:docname="gol-colored.svg"
   inkscape:version="1.2.1 (9c6d41e410, 2022-07-14)"
   xmlns:inkscape="http://www.inkscape.org/namespaces/inkscape"
   xmlns:sodipodi="http://sodipodi.sourceforge.net/DTD/sodipodi-0.dtd"
   xmlns="http://www.w3.org/2000/svg"
   xmlns:svg="http://www.w3.org/2000/svg">
  <defs
     id="defs32" />
  <sodipodi:namedview
     id="namedview30"
     pagecolor="#ffffff"
     bordercolor="#000000"
     borderopacity="0.25"
     inkscape:showpageshadow="2"
     inkscape:pageopacity="0.0"
     inkscape:pagecheckerboard="0"
     inkscape:deskcolor="#d1d1d1"
     showgrid="false"
     inkscape:zoom="5.8468819"
     inkscape:cx="72.517285"
     inkscape:cy="50.368727"
     inkscape:window-width="1920"
     inkscape:window-height="1012"
     inkscape:window-x="0"
     inkscape:window-y="32"
     inkscape:window-maximized="1"
     inkscape:current-layer="g6452" />
  <g
     id="g6452"
     transform="matrix(0.65586586,0,0,0.65586586,16.866729,-42.165807)">
    <path
       inkscape:connector-curvature="0"
       id="path600"
       d="m 38.660156,171.28516 c 0,-0.11719 0.03906,-0.22266 0.109375,-0.30469 0.07031,-0.082 0.175782,-0.1211 0.320313,-0.1211 h 0.628906 c 0.144531,0 0.25,0.0391 0.320313,0.1211 0.07031,0.082 0.109375,0.1875 0.109375,0.30469 v 5.66406 c 0,0.40625 0.08594,0.69922 0.265625,0.88281 0.175781,0.18359 0.4375,0.27734 0.792968,0.27734 h 1.832032 c 0.152343,0 0.261718,0.0391 0.328125,0.11719 0.06641,0.0781 0.101562,0.17969 0.101562,0.3086 v 0.33984 c 0,0.11719 -0.03516,0.21875 -0.101562,0.30078 -0.06641,0.0859 -0.175782,0.125 -0.328125,0.125 h -2.136719 c -0.734375,0 -1.292969,-0.19531 -1.671875,-0.58984 -0.378906,-0.39453 -0.570313,-0.95703 -0.570313,-1.69532 v -5.73046"
       style="clip-rule:nonzero;fill:#eb7302;fill-opacity:1;fill-rule:nonzero;stroke:none" />
    <path
       inkscape:connector-curvature="0"
       id="path602"
       d="M 44.832031,174.29297 H 44.28125 c -0.152344,0 -0.261719,-0.043 -0.328125,-0.125 -0.06641,-0.082 -0.101562,-0.1875 -0.101562,-0.31641 v -0.28125 c 0,-0.12109 0.03516,-0.21875 0.101562,-0.30469 0.06641,-0.082 0.175781,-0.12109 0.328125,-0.12109 h 1.527344 c 0.144531,0 0.25,0.0391 0.324219,0.12109 0.07031,0.0859 0.105468,0.1836 0.105468,0.30469 v 5.30469 c 0,0.11719 -0.03516,0.21875 -0.105468,0.30078 -0.07422,0.0859 -0.179688,0.125 -0.324219,0.125 h -0.550781 c -0.148438,0 -0.257813,-0.0391 -0.324219,-0.125 -0.06641,-0.082 -0.101563,-0.18359 -0.101563,-0.30078 z m 0.425782,-2.17578 c -0.148438,0 -0.257813,-0.0391 -0.324219,-0.11719 -0.06641,-0.0781 -0.101563,-0.18359 -0.101563,-0.30859 v -0.40625 c 0,-0.11719 0.03516,-0.22266 0.101563,-0.30469 0.06641,-0.082 0.175781,-0.1211 0.324219,-0.1211 h 0.550781 c 0.144531,0 0.25,0.0391 0.324219,0.1211 0.07031,0.082 0.105468,0.1875 0.105468,0.30469 v 0.40625 c 0,0.125 -0.03516,0.23046 -0.105468,0.30859 -0.07422,0.0781 -0.179688,0.11719 -0.324219,0.11719 h -0.550781"
       style="clip-rule:nonzero;fill:#eb7302;fill-opacity:1;fill-rule:nonzero;stroke:none" />
    <path
       inkscape:connector-curvature="0"
       id="path604"
       d="m 48.085938,173.57031 c 0,-0.12109 0.03516,-0.21875 0.105468,-0.30469 0.07031,-0.082 0.179688,-0.12109 0.320313,-0.12109 H 49.0625 c 0.144531,0 0.25,0.0391 0.320313,0.12109 0.07422,0.0859 0.109375,0.1836 0.109375,0.30469 v 0.69922 l 0.394531,-0.40625 c 0.214844,-0.22266 0.464844,-0.41797 0.746094,-0.57422 0.28125,-0.15625 0.628906,-0.23437 1.042968,-0.23437 0.511719,0 0.933594,0.14453 1.265625,0.42968 0.332032,0.28907 0.5,0.8086 0.5,1.55079 v 3.83984 c 0,0.11719 -0.03125,0.21875 -0.101562,0.30078 -0.06641,0.0859 -0.175781,0.125 -0.324219,0.125 h -0.550781 c -0.152344,0 -0.261719,-0.0391 -0.328125,-0.125 -0.06641,-0.082 -0.101563,-0.18359 -0.101563,-0.30078 v -3.57031 c 0,-0.42578 -0.08203,-0.71485 -0.253906,-0.86328 -0.167969,-0.14454 -0.363281,-0.21875 -0.589844,-0.21875 -0.261718,0 -0.519531,0.10156 -0.765625,0.30078 -0.246093,0.19922 -0.453125,0.3789 -0.617187,0.54297 l -0.316406,0.3164 v 3.49219 c 0,0.11719 -0.03516,0.21875 -0.109375,0.30078 -0.07031,0.0859 -0.175782,0.125 -0.320313,0.125 h -0.550781 c -0.140625,0 -0.25,-0.0391 -0.320313,-0.125 -0.07031,-0.082 -0.105468,-0.18359 -0.105468,-0.30078 v -5.30469"
       style="clip-rule:nonzero;fill:#eb7302;fill-opacity:1;fill-rule:nonzero;stroke:none" />
    <path
       inkscape:connector-curvature="0"
       id="path606"
       d="m 55.265625,171.28516 c 0,-0.11719 0.03516,-0.22266 0.109375,-0.30469 0.07031,-0.082 0.175781,-0.1211 0.320313,-0.1211 h 0.550781 c 0.140625,0 0.25,0.0391 0.320312,0.1211 0.07031,0.082 0.105469,0.1875 0.105469,0.30469 v 2.98437 l 0.394531,-0.40625 c 0.21875,-0.22266 0.46875,-0.41797 0.75,-0.57422 0.28125,-0.15625 0.628907,-0.23437 1.042969,-0.23437 0.507813,0 0.929688,0.15625 1.265625,0.46484 0.332031,0.3125 0.5,0.85938 0.5,1.63672 v 3.71875 c 0,0.11719 -0.03516,0.21875 -0.101562,0.30078 -0.06641,0.0859 -0.175782,0.125 -0.324219,0.125 H 59.65625 c -0.148437,0 -0.257812,-0.0391 -0.324219,-0.125 -0.07031,-0.082 -0.101562,-0.18359 -0.101562,-0.30078 v -3.57031 c 0,-0.42578 -0.08594,-0.71485 -0.261719,-0.86328 -0.171875,-0.14454 -0.371094,-0.21875 -0.59375,-0.21875 -0.265625,0 -0.519531,0.10156 -0.765625,0.30078 -0.25,0.19922 -0.453125,0.3789 -0.621094,0.54297 l -0.316406,0.3164 v 3.49219 c 0,0.11719 -0.03516,0.21875 -0.105469,0.30078 -0.07031,0.0859 -0.179687,0.125 -0.320312,0.125 h -0.550781 c -0.144532,0 -0.25,-0.0391 -0.320313,-0.125 -0.07422,-0.082 -0.109375,-0.18359 -0.109375,-0.30078 v -7.58984"
       style="clip-rule:nonzero;fill:#eb7302;fill-opacity:1;fill-rule:nonzero;stroke:none" />
    <path
       inkscape:connector-curvature="0"
       id="path608"
       d="m 62.101563,176.30469 c 0,-0.95703 0.339843,-1.72657 1.027343,-2.30078 0.6875,-0.57422 1.457032,-0.85938 2.3125,-0.85938 h 1.691407 c 0.140625,0 0.25,0.0391 0.320312,0.12109 0.07031,0.0859 0.105469,0.1836 0.105469,0.30469 v 5.30469 c 0,0.11719 -0.03516,0.21875 -0.105469,0.30078 -0.07031,0.0859 -0.179687,0.125 -0.320312,0.125 h -0.550782 c -0.144531,0 -0.25,-0.0391 -0.324218,-0.125 -0.07031,-0.082 -0.105469,-0.18359 -0.105469,-0.30078 v -0.64453 l -0.449219,0.40625 c -0.234375,0.21094 -0.492187,0.38672 -0.777344,0.53515 -0.285156,0.14454 -0.628906,0.21875 -1.035156,0.21875 -0.496094,0 -0.917969,-0.16796 -1.265625,-0.5 -0.351562,-0.33203 -0.523437,-0.875 -0.523437,-1.61718 z m 1.40625,0.84765 c 0,0.42578 0.08203,0.71094 0.246093,0.85547 0.167969,0.14063 0.363282,0.21094 0.597657,0.21094 0.277343,0 0.554687,-0.10156 0.832031,-0.30859 0.277344,-0.20704 0.5,-0.37891 0.664062,-0.52344 l 0.304688,-0.30469 v -2.78906 h -0.628906 c -0.578125,0 -1.058594,0.17969 -1.441407,0.53906 -0.382812,0.35938 -0.574218,0.84766 -0.574218,1.46484 v 0.85547"
       style="clip-rule:nonzero;fill:#eb7302;fill-opacity:1;fill-rule:nonzero;stroke:none" />
    <path
       inkscape:connector-curvature="0"
       id="path610"
       d="m 69.113281,178.43359 c 0,-0.12109 0.03125,-0.20703 0.08984,-0.25781 0.05859,-0.0547 0.140625,-0.0781 0.238281,-0.0781 h 0.05469 l 0.06641,0.0117 c 0.277344,0.043 0.53125,0.0781 0.753906,0.10157 0.226563,0.0195 0.476563,0.0312 0.746094,0.0312 0.367188,0 0.6875,-0.0508 0.957031,-0.15625 0.269532,-0.10547 0.402344,-0.30469 0.402344,-0.59766 0,-0.21094 -0.09375,-0.36719 -0.28125,-0.47266 -0.1875,-0.10546 -0.390625,-0.18359 -0.605469,-0.23828 l -0.9375,-0.21093 c -0.449218,-0.11329 -0.8125,-0.30079 -1.09375,-0.5586 -0.285156,-0.25781 -0.421875,-0.63672 -0.421875,-1.1289 0,-0.61719 0.257813,-1.07422 0.773438,-1.375 0.519531,-0.30079 1.148437,-0.44922 1.894531,-0.44922 0.296875,0 0.550781,0.0117 0.753906,0.0312 0.199219,0.0234 0.429688,0.0586 0.683594,0.10156 0.121094,0.0156 0.207031,0.0586 0.261719,0.125 0.05078,0.0664 0.07813,0.16016 0.07813,0.28125 v 0.39453 c 0,0.11328 -0.02734,0.19922 -0.08594,0.25781 -0.05469,0.0586 -0.132812,0.0898 -0.230468,0.0898 l -0.125,-0.0156 -0.167969,-0.0273 c -0.15625,-0.0234 -0.335938,-0.043 -0.535156,-0.0625 -0.199219,-0.0195 -0.40625,-0.0273 -0.625,-0.0273 -0.359375,0 -0.65625,0.0508 -0.894532,0.14844 -0.234375,0.10156 -0.355468,0.28125 -0.355468,0.53516 0,0.21094 0.08203,0.35156 0.238281,0.42187 0.15625,0.0742 0.332031,0.13282 0.527344,0.1875 l 0.824218,0.19141 c 0.472657,0.11328 0.882813,0.29297 1.230469,0.53906 0.351563,0.25 0.523438,0.66797 0.523438,1.26172 0,0.73438 -0.289063,1.23828 -0.871094,1.50391 -0.582031,0.26562 -1.222656,0.39843 -1.917969,0.39843 -0.308594,0 -0.582031,-0.0117 -0.824219,-0.0391 -0.238281,-0.0273 -0.492187,-0.0586 -0.765625,-0.0937 -0.140625,-0.0234 -0.238281,-0.0703 -0.285156,-0.14453 -0.05078,-0.0703 -0.07422,-0.16406 -0.07422,-0.28516 v -0.39453"
       style="clip-rule:nonzero;fill:#eb7302;fill-opacity:1;fill-rule:nonzero;stroke:none" />
    <path
       inkscape:connector-curvature="0"
       id="path612"
       d="m 77.929688,176.30469 c 0,-0.95703 0.339843,-1.72657 1.027343,-2.30078 0.6875,-0.57422 1.460938,-0.85938 2.3125,-0.85938 h 1.691407 c 0.140625,0 0.25,0.0391 0.320312,0.12109 0.07031,0.0859 0.105469,0.1836 0.105469,0.30469 v 5.30469 c 0,0.11719 -0.03516,0.21875 -0.105469,0.30078 -0.07031,0.0859 -0.179687,0.125 -0.320312,0.125 h -0.550782 c -0.144531,0 -0.25,-0.0391 -0.320312,-0.125 -0.07422,-0.082 -0.109375,-0.18359 -0.109375,-0.30078 v -0.64453 l -0.449219,0.40625 c -0.234375,0.21094 -0.492187,0.38672 -0.777344,0.53515 -0.285156,0.14454 -0.628906,0.21875 -1.035156,0.21875 -0.496094,0 -0.917969,-0.16796 -1.265625,-0.5 -0.351562,-0.33203 -0.523437,-0.875 -0.523437,-1.61718 z m 1.40625,0.84765 c 0,0.42578 0.08203,0.71094 0.246093,0.85547 0.167969,0.14063 0.367188,0.21094 0.597657,0.21094 0.277343,0 0.554687,-0.10156 0.832031,-0.30859 0.277344,-0.20704 0.5,-0.37891 0.664062,-0.52344 l 0.304688,-0.30469 v -2.78906 h -0.628906 c -0.578125,0 -1.058594,0.17969 -1.441407,0.53906 -0.382812,0.35938 -0.574218,0.84766 -0.574218,1.46484 v 0.85547"
       style="clip-rule:nonzero;fill:#eb7302;fill-opacity:1;fill-rule:nonzero;stroke:none" />
    <path
       inkscape:connector-curvature="0"
       id="path614"
       d="m 84.839844,175.69922 c 0,-0.8711 0.285156,-1.53125 0.855469,-1.97656 0.570312,-0.44532 1.261718,-0.66797 2.070312,-0.66797 0.65625,0 1.210938,0.14062 1.671875,0.42578 0.460938,0.28515 0.695313,0.7539 0.695313,1.40625 0,0.58594 -0.179688,1.02734 -0.535157,1.32422 -0.355468,0.29687 -0.851562,0.44531 -1.480468,0.44531 h -1.871094 v 0.26953 c 0,0.46484 0.148437,0.79688 0.441406,0.99609 0.292969,0.19922 0.640625,0.29688 1.046875,0.29688 0.308594,0 0.589844,-0.0273 0.84375,-0.082 0.253906,-0.0547 0.480469,-0.10938 0.675781,-0.15235 l 0.08594,-0.0156 0.07031,-0.008 0.1875,0.0781 c 0.04687,0.0547 0.07422,0.12891 0.07422,0.22656 v 0.34766 c 0,0.13672 -0.02344,0.24609 -0.07031,0.33203 -0.04297,0.0859 -0.128907,0.14453 -0.246094,0.17578 -0.1875,0.0547 -0.433594,0.10938 -0.738281,0.17578 -0.304688,0.0625 -0.613282,0.0937 -0.929688,0.0937 -0.800781,0 -1.476562,-0.1914 -2.023437,-0.57812 -0.550782,-0.38672 -0.824219,-1.02344 -0.824219,-1.91016 z m 1.40625,0.10156 h 1.511719 c 0.378906,0 0.644531,-0.0703 0.792968,-0.21094 0.144532,-0.13672 0.21875,-0.33593 0.21875,-0.60156 0,-0.28516 -0.101562,-0.48437 -0.296875,-0.59375 -0.199218,-0.11328 -0.449218,-0.17187 -0.75,-0.17187 -0.457031,0 -0.816406,0.12109 -1.082031,0.36328 -0.261719,0.23828 -0.394531,0.61718 -0.394531,1.13672 z m 0.722656,-3.53516 -0.167969,-0.0469 -0.05859,-0.10156 0.01172,-0.0703 0.05469,-0.0859 0.777344,-1.10157 c 0.0625,-0.0977 0.128906,-0.18359 0.210937,-0.25 0.07813,-0.0664 0.1875,-0.10156 0.332031,-0.10156 h 0.71875 c 0.113282,0 0.191407,0.0156 0.238282,0.0469 l 0.06641,0.13281 -0.03906,0.125 -0.09766,0.11328 -1.078125,1.03516 c -0.105469,0.0898 -0.203125,0.16406 -0.289062,0.21875 -0.08594,0.0586 -0.179688,0.0859 -0.285157,0.0859 H 86.96876"
       style="clip-rule:nonzero;fill:#eb7302;fill-opacity:1;fill-rule:nonzero;stroke:none" />
    <path
       inkscape:connector-curvature="0"
       id="path616"
       d="m 91.492188,173.57031 c 0,-0.12109 0.03906,-0.21875 0.109375,-0.30469 0.07031,-0.082 0.175781,-0.12109 0.320312,-0.12109 h 0.550781 c 0.144532,0 0.25,0.0391 0.320313,0.12109 0.07422,0.0859 0.105469,0.1836 0.105469,0.30469 v 0.74219 l 0.105468,-0.13281 c 0.207032,-0.3086 0.453125,-0.5625 0.734375,-0.76172 0.28125,-0.19922 0.601563,-0.29688 0.964844,-0.29688 h 0.05469 c 0.140625,0 0.25,0.0391 0.320312,0.11719 0.07031,0.0781 0.109375,0.18359 0.109375,0.30859 V 174 c 0,0.13281 -0.03906,0.23828 -0.109375,0.3125 -0.07031,0.0781 -0.179687,0.11328 -0.320312,0.11328 h -0.113282 c -0.222656,0 -0.441406,0.0352 -0.652343,0.10156 -0.210938,0.0664 -0.394532,0.16797 -0.550782,0.30469 -0.0078,0 -0.09766,0.082 -0.269531,0.24609 -0.171875,0.16797 -0.261719,0.25391 -0.273437,0.26172 v 3.53516 c 0,0.11719 -0.03125,0.21875 -0.105469,0.30078 -0.07031,0.0859 -0.175781,0.125 -0.320313,0.125 h -0.550781 c -0.144531,0 -0.25,-0.0391 -0.320312,-0.125 -0.07031,-0.082 -0.109375,-0.18359 -0.109375,-0.30078 v -5.30469"
       style="clip-rule:nonzero;fill:#eb7302;fill-opacity:1;fill-rule:nonzero;stroke:none" />
    <path
       inkscape:connector-curvature="0"
       id="path618"
       d="m 95.761719,175.69922 c 0,-0.8711 0.285156,-1.53125 0.855469,-1.97656 0.570312,-0.44532 1.261718,-0.66797 2.070312,-0.66797 0.652344,0 1.210938,0.14062 1.67188,0.42578 0.46093,0.28515 0.6914,0.7539 0.6914,1.40625 0,0.58594 -0.17578,1.02734 -0.53515,1.32422 -0.35547,0.29687 -0.847661,0.44531 -1.480474,0.44531 h -1.867187 v 0.26953 c 0,0.46484 0.144531,0.79688 0.4375,0.99609 0.292969,0.19922 0.644531,0.29688 1.046875,0.29688 0.308594,0 0.589844,-0.0273 0.847656,-0.082 0.253906,-0.0547 0.476563,-0.10938 0.67188,-0.15235 l 0.0859,-0.0156 0.0742,-0.008 0.1836,0.0781 c 0.0508,0.0547 0.0742,0.12891 0.0742,0.22656 v 0.34766 c 0,0.13672 -0.0234,0.24609 -0.0664,0.33203 -0.0469,0.0859 -0.12891,0.14453 -0.25,0.17578 -0.1875,0.0547 -0.433596,0.10938 -0.734377,0.17578 -0.304688,0.0625 -0.617188,0.0937 -0.929688,0.0937 -0.804687,0 -1.480469,-0.1914 -2.027344,-0.57812 -0.546875,-0.38672 -0.820312,-1.02344 -0.820312,-1.91016 z m 1.40625,0.10156 h 1.507812 c 0.382813,0 0.648438,-0.0703 0.792969,-0.21094 0.148438,-0.13672 0.21875,-0.33593 0.21875,-0.60156 0,-0.28516 -0.09766,-0.48437 -0.296875,-0.59375 -0.199219,-0.11328 -0.449219,-0.17187 -0.75,-0.17187 -0.457031,0 -0.816406,0.12109 -1.078125,0.36328 -0.265625,0.23828 -0.394531,0.61718 -0.394531,1.13672 v 0.0781"
       style="clip-rule:nonzero;fill:#eb7302;fill-opacity:1;fill-rule:nonzero;stroke:none" />
    <path
       inkscape:connector-curvature="0"
       id="path620"
       d="m 102.06641,176.30469 c 0,-0.95703 0.34375,-1.72657 1.02734,-2.30078 0.6875,-0.57422 1.45703,-0.85938 2.31641,-0.85938 h 1.6875 c 0.14062,0 0.25,0.0391 0.32031,0.12109 0.0703,0.0859 0.10547,0.1836 0.10547,0.30469 v 5.30469 c 0,0.11719 -0.0352,0.21875 -0.10547,0.30078 -0.0703,0.0859 -0.17969,0.125 -0.32031,0.125 h -0.55078 c -0.14454,0 -0.25,-0.0391 -0.32422,-0.125 -0.0703,-0.082 -0.10547,-0.18359 -0.10547,-0.30078 v -0.64453 l -0.44922,0.40625 c -0.23438,0.21094 -0.49219,0.38672 -0.77734,0.53515 -0.28516,0.14454 -0.62891,0.21875 -1.03516,0.21875 -0.49609,0 -0.91797,-0.16796 -1.26563,-0.5 -0.35156,-0.33203 -0.52343,-0.875 -0.52343,-1.61718 z m 1.40625,0.84765 c 0,0.42578 0.082,0.71094 0.24609,0.85547 0.16406,0.14063 0.36328,0.21094 0.59766,0.21094 0.27734,0 0.55468,-0.10156 0.83203,-0.30859 0.27734,-0.20704 0.5,-0.37891 0.66406,-0.52344 l 0.30469,-0.30469 v -2.78906 h -0.62891 c -0.57812,0 -1.05859,0.17969 -1.4414,0.53906 -0.38282,0.35938 -0.57422,0.84766 -0.57422,1.46484 v 0.85547"
       style="clip-rule:nonzero;fill:#eb7302;fill-opacity:1;fill-rule:nonzero;stroke:none" />
    <path
       inkscape:connector-curvature="0"
       id="path622"
       d="m 109.07813,178.43359 c 0,-0.12109 0.0312,-0.20703 0.0898,-0.25781 0.0586,-0.0547 0.14062,-0.0781 0.23828,-0.0781 h 0.0547 l 0.0664,0.0117 c 0.27735,0.043 0.53125,0.0781 0.75782,0.10157 0.22265,0.0195 0.46875,0.0312 0.73828,0.0312 0.37109,0 0.6875,-0.0508 0.95703,-0.15625 0.27344,-0.10547 0.40625,-0.30469 0.40625,-0.59766 0,-0.21094 -0.0937,-0.36719 -0.28125,-0.47266 -0.1875,-0.10546 -0.39063,-0.18359 -0.60547,-0.23828 l -0.9375,-0.21093 c -0.44922,-0.11329 -0.81641,-0.30079 -1.09766,-0.5586 -0.28125,-0.25781 -0.42187,-0.63672 -0.42187,-1.1289 0,-0.61719 0.26172,-1.07422 0.77734,-1.375 0.51953,-0.30079 1.14844,-0.44922 1.89063,-0.44922 0.30078,0 0.55469,0.0117 0.7539,0.0312 0.20313,0.0234 0.4336,0.0586 0.6875,0.10156 0.1211,0.0156 0.20704,0.0586 0.26172,0.125 0.0508,0.0664 0.0781,0.16016 0.0781,0.28125 v 0.39453 c 0,0.11328 -0.0273,0.19922 -0.0859,0.25781 -0.0547,0.0586 -0.13281,0.0898 -0.23047,0.0898 l -0.125,-0.0156 -0.16797,-0.0273 c -0.15625,-0.0234 -0.33593,-0.043 -0.53515,-0.0625 -0.19922,-0.0195 -0.40625,-0.0273 -0.625,-0.0273 -0.35938,0 -0.65625,0.0508 -0.89453,0.14844 -0.23438,0.10156 -0.35547,0.28125 -0.35547,0.53516 0,0.21094 0.082,0.35156 0.23828,0.42187 0.15625,0.0742 0.33203,0.13282 0.52734,0.1875 l 0.82422,0.19141 c 0.47266,0.11328 0.88281,0.29297 1.23047,0.53906 0.35156,0.25 0.52344,0.66797 0.52344,1.26172 0,0.73438 -0.28907,1.23828 -0.8711,1.50391 -0.58203,0.26562 -1.22265,0.39843 -1.92187,0.39843 -0.30469,0 -0.57813,-0.0117 -0.82031,-0.0391 -0.23829,-0.0273 -0.4961,-0.0586 -0.76563,-0.0937 -0.14062,-0.0234 -0.23828,-0.0703 -0.28516,-0.14453 -0.0508,-0.0703 -0.0742,-0.16406 -0.0742,-0.28516 v -0.39453"
       style="clip-rule:nonzero;fill:#eb7302;fill-opacity:1;fill-rule:nonzero;stroke:none" />
    <path
       inkscape:connector-curvature="0"
       id="path624"
       d="m 118.42188,174.29297 h -0.55079 c -0.15234,0 -0.26171,-0.043 -0.32812,-0.125 -0.0664,-0.082 -0.10156,-0.1875 -0.10156,-0.31641 v -0.28125 c 0,-0.12109 0.0352,-0.21875 0.10156,-0.30469 0.0664,-0.082 0.17578,-0.12109 0.32812,-0.12109 h 1.53125 c 0.14063,0 0.25,0.0391 0.32032,0.12109 0.0703,0.0859 0.10547,0.1836 0.10547,0.30469 v 5.30469 c 0,0.11719 -0.0352,0.21875 -0.10547,0.30078 -0.0703,0.0859 -0.17969,0.125 -0.32032,0.125 h -0.55468 c -0.14844,0 -0.25782,-0.0391 -0.32422,-0.125 -0.0664,-0.082 -0.10156,-0.18359 -0.10156,-0.30078 z m 0.42578,-2.17578 c -0.14844,0 -0.25782,-0.0391 -0.32422,-0.11719 -0.0664,-0.0781 -0.10156,-0.18359 -0.10156,-0.30859 v -0.40625 c 0,-0.11719 0.0352,-0.22266 0.10156,-0.30469 0.0664,-0.082 0.17578,-0.1211 0.32422,-0.1211 h 0.55468 c 0.14063,0 0.25,0.0391 0.32032,0.1211 0.0703,0.082 0.10547,0.1875 0.10547,0.30469 v 0.40625 c 0,0.125 -0.0352,0.23046 -0.10547,0.30859 -0.0703,0.0781 -0.17969,0.11719 -0.32032,0.11719 h -0.55468"
       style="clip-rule:nonzero;fill:#eb7302;fill-opacity:1;fill-rule:nonzero;stroke:none" />
    <path
       inkscape:connector-curvature="0"
       id="path626"
       d="m 121.67578,173.57031 c 0,-0.12109 0.0352,-0.21875 0.10547,-0.30469 0.0703,-0.082 0.17969,-0.12109 0.32031,-0.12109 h 0.55469 c 0.14063,0 0.25,0.0391 0.32031,0.12109 0.0703,0.0859 0.10547,0.1836 0.10547,0.30469 v 0.69922 l 0.39453,-0.40625 c 0.21875,-0.22266 0.46485,-0.41797 0.75,-0.57422 0.28125,-0.15625 0.625,-0.23437 1.03907,-0.23437 0.51171,0 0.93359,0.14453 1.26953,0.42968 0.33203,0.28907 0.5,0.8086 0.5,1.55079 v 3.83984 c 0,0.11719 -0.0352,0.21875 -0.10157,0.30078 -0.0664,0.0859 -0.17578,0.125 -0.32812,0.125 h -0.55078 c -0.14844,0 -0.25781,-0.0391 -0.32813,-0.125 -0.0664,-0.082 -0.0977,-0.18359 -0.0977,-0.30078 v -3.57031 c 0,-0.42578 -0.0859,-0.71485 -0.25391,-0.86328 -0.17187,-0.14454 -0.36719,-0.21875 -0.59375,-0.21875 -0.26172,0 -0.51562,0.10156 -0.76562,0.30078 -0.2461,0.19922 -0.45313,0.3789 -0.61719,0.54297 l -0.31641,0.3164 v 3.49219 c 0,0.11719 -0.0352,0.21875 -0.10547,0.30078 -0.0703,0.0859 -0.17968,0.125 -0.32031,0.125 h -0.55469 c -0.14062,0 -0.25,-0.0391 -0.32031,-0.125 -0.0703,-0.082 -0.10547,-0.18359 -0.10547,-0.30078 v -5.30469"
       style="clip-rule:nonzero;fill:#eb7302;fill-opacity:1;fill-rule:nonzero;stroke:none" />
    <path
       inkscape:connector-curvature="0"
       id="path628"
       d="m 128.94922,174.29297 h -0.46485 c -0.14843,0 -0.25781,-0.043 -0.32421,-0.125 -0.0664,-0.082 -0.10157,-0.1875 -0.10157,-0.31641 v -0.28125 c 0,-0.12109 0.0352,-0.21875 0.10157,-0.30469 0.0664,-0.082 0.17578,-0.12109 0.32421,-0.12109 h 0.46485 v -1.03906 c 0,-0.11719 0.0352,-0.21875 0.10547,-0.30078 0.0703,-0.082 0.17578,-0.125 0.32031,-0.125 h 0.55078 c 0.14453,0 0.25,0.043 0.32422,0.125 0.0703,0.082 0.10547,0.18359 0.10547,0.30078 v 1.03906 h 1.22656 c 0.14844,0 0.25781,0.0391 0.32813,0.12109 0.0664,0.0859 0.0977,0.1836 0.0977,0.30469 v 0.28125 c 0,0.12891 -0.0312,0.23438 -0.0977,0.31641 -0.0703,0.082 -0.17969,0.125 -0.32813,0.125 h -1.22656 v 2.5664 c 0,0.50782 0.0898,0.85157 0.26953,1.02735 0.17969,0.17969 0.49219,0.26562 0.93359,0.26562 h 0.20313 c 0.14453,0 0.25,0.043 0.32031,0.125 0.0742,0.082 0.10938,0.19141 0.10938,0.32422 v 0.27344 c 0,0.11719 -0.0352,0.21875 -0.10938,0.30078 -0.0703,0.0859 -0.17578,0.125 -0.32031,0.125 h -0.59766 c -0.69531,0 -1.24219,-0.17578 -1.6289,-0.52734 -0.39063,-0.35547 -0.58594,-0.91016 -0.58594,-1.66797 v -2.8125"
       style="clip-rule:nonzero;fill:#eb7302;fill-opacity:1;fill-rule:nonzero;stroke:none" />
    <path
       inkscape:connector-curvature="0"
       id="path630"
       d="m 133.06641,175.69922 c 0,-0.8711 0.28515,-1.53125 0.85546,-1.97656 0.57422,-0.44532 1.26172,-0.66797 2.07422,-0.66797 0.65235,0 1.21094,0.14062 1.67188,0.42578 0.46094,0.28515 0.6914,0.7539 0.6914,1.40625 0,0.58594 -0.17968,1.02734 -0.53515,1.32422 -0.35547,0.29687 -0.85156,0.44531 -1.48047,0.44531 h -1.87109 v 0.26953 c 0,0.46484 0.14843,0.79688 0.4414,0.99609 0.29297,0.19922 0.64063,0.29688 1.04688,0.29688 0.30859,0 0.58984,-0.0273 0.84375,-0.082 0.2539,-0.0547 0.48047,-0.10938 0.67578,-0.15235 l 0.0859,-0.0156 0.0703,-0.008 0.1875,0.0781 c 0.0469,0.0547 0.0742,0.12891 0.0742,0.22656 v 0.34766 c 0,0.13672 -0.0234,0.24609 -0.0664,0.33203 -0.0469,0.0859 -0.12891,0.14453 -0.25,0.17578 -0.1875,0.0547 -0.43359,0.10938 -0.73828,0.17578 -0.30078,0.0625 -0.61328,0.0937 -0.92578,0.0937 -0.80469,0 -1.48047,-0.1914 -2.02735,-0.57812 -0.55078,-0.38672 -0.82421,-1.02344 -0.82421,-1.91016 z m 1.40625,0.10156 h 1.51171 c 0.38282,0 0.64454,-0.0703 0.79297,-0.21094 0.14453,-0.13672 0.21875,-0.33593 0.21875,-0.60156 0,-0.28516 -0.0977,-0.48437 -0.29687,-0.59375 -0.19922,-0.11328 -0.44922,-0.17187 -0.75,-0.17187 -0.45703,0 -0.81641,0.12109 -1.08203,0.36328 -0.26172,0.23828 -0.39453,0.61718 -0.39453,1.13672 v 0.0781"
       style="clip-rule:nonzero;fill:#eb7302;fill-opacity:1;fill-rule:nonzero;stroke:none" />
    <path
       inkscape:connector-curvature="0"
       id="path632"
       d="m 139.77734,172.00781 h -0.55078 c -0.14453,0 -0.25,-0.043 -0.32031,-0.125 -0.0742,-0.082 -0.10938,-0.1875 -0.10938,-0.3164 v -0.28125 c 0,-0.11719 0.0352,-0.22266 0.10938,-0.30469 0.0703,-0.082 0.17578,-0.1211 0.32031,-0.1211 h 1.53125 c 0.14063,0 0.25,0.0391 0.32031,0.1211 0.0703,0.082 0.10547,0.1875 0.10547,0.30469 v 7.58984 c 0,0.11719 -0.0352,0.21875 -0.10547,0.30078 -0.0703,0.0859 -0.17968,0.125 -0.32031,0.125 h -0.55078 c -0.14453,0 -0.25,-0.0391 -0.32031,-0.125 -0.0742,-0.082 -0.10938,-0.18359 -0.10938,-0.30078 v -6.86719"
       style="clip-rule:nonzero;fill:#eb7302;fill-opacity:1;fill-rule:nonzero;stroke:none" />
    <path
       inkscape:connector-curvature="0"
       id="path634"
       d="m 143.21094,174.29297 h -0.55078 c -0.15235,0 -0.26172,-0.043 -0.32813,-0.125 -0.0664,-0.082 -0.10156,-0.1875 -0.10156,-0.31641 v -0.28125 c 0,-0.12109 0.0352,-0.21875 0.10156,-0.30469 0.0664,-0.082 0.17578,-0.12109 0.32813,-0.12109 h 1.53125 c 0.14062,0 0.25,0.0391 0.32031,0.12109 0.0703,0.0859 0.10547,0.1836 0.10547,0.30469 v 5.30469 c 0,0.11719 -0.0352,0.21875 -0.10547,0.30078 -0.0703,0.0859 -0.17969,0.125 -0.32031,0.125 h -0.55079 c -0.15234,0 -0.26171,-0.0391 -0.32812,-0.125 -0.0664,-0.082 -0.10156,-0.18359 -0.10156,-0.30078 z m 0.42968,-2.17578 c -0.15234,0 -0.26171,-0.0391 -0.32812,-0.11719 -0.0664,-0.0781 -0.10156,-0.18359 -0.10156,-0.30859 v -0.40625 c 0,-0.11719 0.0352,-0.22266 0.10156,-0.30469 0.0664,-0.082 0.17578,-0.1211 0.32812,-0.1211 h 0.55079 c 0.14062,0 0.25,0.0391 0.32031,0.1211 0.0703,0.082 0.10547,0.1875 0.10547,0.30469 v 0.40625 c 0,0.125 -0.0352,0.23046 -0.10547,0.30859 -0.0703,0.0781 -0.17969,0.11719 -0.32031,0.11719 h -0.55079"
       style="clip-rule:nonzero;fill:#eb7302;fill-opacity:1;fill-rule:nonzero;stroke:none" />
    <path
       inkscape:connector-curvature="0"
       id="path636"
       d="m 147.94922,180.26953 c 0.77344,0 1.34375,-0.12109 1.70703,-0.35937 0.36328,-0.24219 0.54687,-0.70313 0.54687,-1.38672 v -0.20313 l -0.23828,0.13672 c -0.24609,0.13672 -0.51562,0.25 -0.80468,0.34766 -0.28907,0.0977 -0.63672,0.14843 -1.04297,0.14843 -0.57422,0 -1.05469,-0.1875 -1.4336,-0.5625 -0.3789,-0.375 -0.5664,-0.93359 -0.5664,-1.67968 v -0.48438 c 0,-0.98828 0.30468,-1.75 0.91406,-2.28515 0.61328,-0.53125 1.34766,-0.79688 2.20312,-0.79688 h 1.9375 c 0.14844,0 0.25782,0.0391 0.32813,0.12109 0.0742,0.0859 0.10937,0.1836 0.10937,0.30469 v 4.91797 c 0,1.01563 -0.29687,1.75781 -0.88281,2.22656 -0.58984,0.46875 -1.39453,0.70313 -2.41797,0.70313 h -1.13672 c -0.14843,0 -0.25781,-0.043 -0.33203,-0.125 -0.0703,-0.082 -0.10547,-0.1875 -0.10547,-0.3125 v -0.27344 c 0,-0.125 0.0352,-0.23047 0.10547,-0.3125 0.0742,-0.0859 0.1836,-0.125 0.33203,-0.125 z m 1.45312,-5.97656 c -0.58593,0 -1.04687,0.16797 -1.3789,0.51172 -0.33594,0.33984 -0.5,0.82422 -0.5,1.44531 v 0.37109 c 0,0.40625 0.0859,0.69922 0.25781,0.88282 0.17187,0.18359 0.41797,0.27734 0.73047,0.27734 0.27734,0 0.53906,-0.0391 0.77734,-0.11328 0.24219,-0.0742 0.46875,-0.16016 0.6875,-0.25781 l 0.22656,-0.10157 v -3.01562 h -0.80078"
       style="clip-rule:nonzero;fill:#eb7302;fill-opacity:1;fill-rule:nonzero;stroke:none" />
    <path
       inkscape:connector-curvature="0"
       id="path638"
       d="m 153.0625,175.69922 c 0,-0.8711 0.28516,-1.53125 0.85547,-1.97656 0.57031,-0.44532 1.25781,-0.66797 2.07031,-0.66797 0.65234,0 1.21094,0.14062 1.67188,0.42578 0.46093,0.28515 0.6914,0.7539 0.6914,1.40625 0,0.58594 -0.17578,1.02734 -0.53515,1.32422 -0.35547,0.29687 -0.84766,0.44531 -1.48047,0.44531 h -1.86719 v 0.26953 c 0,0.46484 0.14453,0.79688 0.4375,0.99609 0.29297,0.19922 0.64453,0.29688 1.04687,0.29688 0.3086,0 0.58985,-0.0273 0.84766,-0.082 0.25391,-0.0547 0.48047,-0.10938 0.67188,-0.15235 l 0.0859,-0.0156 0.0742,-0.008 0.1836,0.0781 c 0.0508,0.0547 0.0742,0.12891 0.0742,0.22656 v 0.34766 c 0,0.13672 -0.0234,0.24609 -0.0664,0.33203 -0.0469,0.0859 -0.12891,0.14453 -0.25,0.17578 -0.1875,0.0547 -0.4336,0.10938 -0.73438,0.17578 -0.30468,0.0625 -0.61718,0.0937 -0.92968,0.0937 -0.80469,0 -1.48047,-0.1914 -2.02735,-0.57812 -0.54687,-0.38672 -0.82031,-1.02344 -0.82031,-1.91016 z m 1.40625,0.10156 h 1.50781 c 0.38281,0 0.64844,-0.0703 0.79297,-0.21094 0.14844,-0.13672 0.21875,-0.33593 0.21875,-0.60156 0,-0.28516 -0.0977,-0.48437 -0.29687,-0.59375 -0.19922,-0.11328 -0.44922,-0.17187 -0.75,-0.17187 -0.45704,0 -0.81641,0.12109 -1.07813,0.36328 -0.26562,0.23828 -0.39453,0.61718 -0.39453,1.13672 v 0.0781"
       style="clip-rule:nonzero;fill:#eb7302;fill-opacity:1;fill-rule:nonzero;stroke:none" />
    <path
       inkscape:connector-curvature="0"
       id="path640"
       d="m 159.71484,173.57031 c 0,-0.12109 0.0352,-0.21875 0.10547,-0.30469 0.0703,-0.082 0.17969,-0.12109 0.32422,-0.12109 h 0.55078 c 0.14063,0 0.25,0.0391 0.32031,0.12109 0.0703,0.0859 0.10547,0.1836 0.10547,0.30469 v 0.69922 l 0.39453,-0.40625 c 0.21875,-0.22266 0.46485,-0.41797 0.75,-0.57422 0.28125,-0.15625 0.62891,-0.23437 1.03907,-0.23437 0.51172,0 0.93359,0.14453 1.26953,0.42968 0.33203,0.28907 0.5,0.8086 0.5,1.55079 v 3.83984 c 0,0.11719 -0.0352,0.21875 -0.10156,0.30078 -0.0664,0.0859 -0.17579,0.125 -0.32813,0.125 h -0.55078 c -0.15234,0 -0.25781,-0.0391 -0.32422,-0.125 -0.0703,-0.082 -0.10156,-0.18359 -0.10156,-0.30078 v -3.57031 c 0,-0.42578 -0.0859,-0.71485 -0.25391,-0.86328 -0.16797,-0.14454 -0.36719,-0.21875 -0.59375,-0.21875 -0.26172,0 -0.51562,0.10156 -0.76562,0.30078 -0.2461,0.19922 -0.45313,0.3789 -0.61719,0.54297 l -0.31641,0.3164 v 3.49219 c 0,0.11719 -0.0352,0.21875 -0.10547,0.30078 -0.0703,0.0859 -0.17968,0.125 -0.32031,0.125 h -0.55078 c -0.14453,0 -0.25391,-0.0391 -0.32422,-0.125 -0.0703,-0.082 -0.10547,-0.18359 -0.10547,-0.30078 v -5.30469"
       style="clip-rule:nonzero;fill:#eb7302;fill-opacity:1;fill-rule:nonzero;stroke:none" />
    <path
       inkscape:connector-curvature="0"
       id="path642"
       d="m 166.98828,174.29297 h -0.46484 c -0.14844,0 -0.25782,-0.043 -0.32422,-0.125 -0.0664,-0.082 -0.10156,-0.1875 -0.10156,-0.31641 v -0.28125 c 0,-0.12109 0.0352,-0.21875 0.10156,-0.30469 0.0664,-0.082 0.17578,-0.12109 0.32422,-0.12109 h 0.46484 v -1.03906 c 0,-0.11719 0.0352,-0.21875 0.10547,-0.30078 0.0703,-0.082 0.17969,-0.125 0.32031,-0.125 h 0.55078 c 0.14453,0 0.25,0.043 0.32422,0.125 0.0703,0.082 0.10547,0.18359 0.10547,0.30078 v 1.03906 h 1.22656 c 0.14844,0 0.25782,0.0391 0.32813,0.12109 0.0664,0.0859 0.10156,0.1836 0.10156,0.30469 v 0.28125 c 0,0.12891 -0.0352,0.23438 -0.10156,0.31641 -0.0703,0.082 -0.17969,0.125 -0.32813,0.125 h -1.22656 v 2.5664 c 0,0.50782 0.0898,0.85157 0.26953,1.02735 0.17969,0.17969 0.49219,0.26562 0.9336,0.26562 h 0.20312 c 0.14063,0 0.25,0.043 0.32031,0.125 0.0703,0.082 0.10938,0.19141 0.10938,0.32422 v 0.27344 c 0,0.11719 -0.0391,0.21875 -0.10938,0.30078 -0.0703,0.0859 -0.17968,0.125 -0.32031,0.125 h -0.59766 c -0.69531,0 -1.24218,-0.17578 -1.6289,-0.52734 -0.39063,-0.35547 -0.58594,-0.91016 -0.58594,-1.66797 v -2.8125"
       style="clip-rule:nonzero;fill:#eb7302;fill-opacity:1;fill-rule:nonzero;stroke:none" />
    <path
       inkscape:connector-curvature="0"
       id="path644"
       d="m 171.10547,175.69922 c 0,-0.8711 0.28515,-1.53125 0.85937,-1.97656 0.57032,-0.44532 1.25782,-0.66797 2.07032,-0.66797 0.65234,0 1.21093,0.14062 1.67187,0.42578 0.46094,0.28515 0.69141,0.7539 0.69141,1.40625 0,0.58594 -0.17969,1.02734 -0.53516,1.32422 -0.35547,0.29687 -0.85156,0.44531 -1.48047,0.44531 h -1.87109 v 0.26953 c 0,0.46484 0.14844,0.79688 0.4414,0.99609 0.29297,0.19922 0.64063,0.29688 1.04688,0.29688 0.30859,0 0.58984,-0.0273 0.84375,-0.082 0.25391,-0.0547 0.48047,-0.10938 0.67578,-0.15235 l 0.0859,-0.0156 0.0703,-0.008 0.1875,0.0781 c 0.0469,0.0547 0.0742,0.12891 0.0742,0.22656 v 0.34766 c 0,0.13672 -0.0234,0.24609 -0.0703,0.33203 -0.043,0.0859 -0.125,0.14453 -0.2461,0.17578 -0.1875,0.0547 -0.43359,0.10938 -0.73828,0.17578 -0.30078,0.0625 -0.61328,0.0937 -0.92578,0.0937 -0.80469,0 -1.48047,-0.1914 -2.02734,-0.57812 -0.55078,-0.38672 -0.82422,-1.02344 -0.82422,-1.91016 z m 1.40625,0.10156 h 1.51172 c 0.38281,0 0.64453,-0.0703 0.79297,-0.21094 0.14453,-0.13672 0.21875,-0.33593 0.21875,-0.60156 0,-0.28516 -0.0977,-0.48437 -0.29688,-0.59375 -0.19922,-0.11328 -0.44922,-0.17187 -0.75,-0.17187 -0.45703,0 -0.81641,0.12109 -1.07812,0.36328 -0.26563,0.23828 -0.39844,0.61718 -0.39844,1.13672 v 0.0781"
       style="clip-rule:nonzero;fill:#eb7302;fill-opacity:1;fill-rule:nonzero;stroke:none" />
    <path
       inkscape:connector-curvature="0"
       id="path646"
       d="m 177.52344,178.43359 c 0,-0.12109 0.0312,-0.20703 0.0898,-0.25781 0.0586,-0.0547 0.14063,-0.0781 0.23828,-0.0781 h 0.0547 l 0.0664,0.0117 c 0.28125,0.043 0.53125,0.0781 0.7539,0.10157 0.22656,0.0195 0.47656,0.0312 0.7461,0.0312 0.36718,0 0.68359,-0.0508 0.95703,-0.15625 0.26953,-0.10547 0.40625,-0.30469 0.40625,-0.59766 0,-0.21094 -0.0977,-0.36719 -0.28516,-0.47266 -0.1875,-0.10546 -0.38672,-0.18359 -0.60547,-0.23828 l -0.9375,-0.21093 c -0.44922,-0.11329 -0.8164,-0.30079 -1.09375,-0.5586 -0.28125,-0.25781 -0.42187,-0.63672 -0.42187,-1.1289 0,-0.61719 0.25781,-1.07422 0.77343,-1.375 0.51954,-0.30079 1.14844,-0.44922 1.89063,-0.44922 0.30078,0 0.55469,0.0117 0.75781,0.0312 0.19922,0.0234 0.42969,0.0586 0.6836,0.10156 0.12109,0.0156 0.20703,0.0586 0.26171,0.125 0.0508,0.0664 0.0781,0.16016 0.0781,0.28125 v 0.39453 c 0,0.11328 -0.0273,0.19922 -0.0859,0.25781 -0.0547,0.0586 -0.13281,0.0898 -0.23047,0.0898 l -0.125,-0.0156 -0.16797,-0.0273 c -0.15625,-0.0234 -0.33593,-0.043 -0.53515,-0.0625 -0.19922,-0.0195 -0.40625,-0.0273 -0.625,-0.0273 -0.35938,0 -0.65625,0.0508 -0.89453,0.14844 -0.23438,0.10156 -0.35547,0.28125 -0.35547,0.53516 0,0.21094 0.082,0.35156 0.23828,0.42187 0.15625,0.0742 0.33594,0.13282 0.52734,0.1875 l 0.82422,0.19141 c 0.47266,0.11328 0.88281,0.29297 1.23438,0.53906 0.34765,0.25 0.51953,0.66797 0.51953,1.26172 0,0.73438 -0.28906,1.23828 -0.8711,1.50391 -0.58203,0.26562 -1.22265,0.39843 -1.91796,0.39843 -0.3086,0 -0.58204,-0.0117 -0.82422,-0.0391 -0.23828,-0.0273 -0.49219,-0.0586 -0.76563,-0.0937 -0.14062,-0.0234 -0.23828,-0.0703 -0.28515,-0.14453 -0.0508,-0.0703 -0.0742,-0.16406 -0.0742,-0.28516 v -0.39453"
       style="clip-rule:nonzero;fill:#eb7302;fill-opacity:1;fill-rule:nonzero;stroke:none" />
    <path
       inkscape:connector-curvature="0"
       id="path648"
       d="m 111.76953,162.62109 c 17.39453,0 31.49219,-14.10156 31.49219,-31.49218 0,-17.39453 -14.09766,-31.496097 -31.49219,-31.496097 -14.820311,0 -27.246092,10.234377 -30.601561,24.019527 -0.164063,0.67969 -0.773438,1.15625 -1.472656,1.15625 H 65.878906 c -0.839843,0 -1.515625,0.67969 -1.515625,1.51563 v 9.53906 c 0,0.83594 0.675782,1.51563 1.515625,1.51563 h 9.582032 c 0.835937,0 1.515625,0.67578 1.515625,1.51562 v 5.73828 c 0,0.45313 -0.203125,0.88281 -0.554688,1.17188 -3.269531,2.67187 -7.441406,4.28125 -11.992187,4.28125 -10.46875,0 -18.957032,-8.48828 -18.957032,-18.95703 0,-10.46875 8.488282,-18.95703 18.957032,-18.95703 2.96875,0 5.777343,0.68359 8.28125,1.90234 0.707031,0.34375 1.558593,0.0898 1.964843,-0.58984 l 4.867188,-8.19141 c 0.214844,-0.35938 0.269531,-0.78906 0.15625,-1.19141 -0.117188,-0.40234 -0.390625,-0.73828 -0.761719,-0.92968 -4.339844,-2.25782 -9.273437,-3.539067 -14.507812,-3.539067 -17.394532,0 -31.496094,14.101567 -31.496094,31.496097 0,17.39062 14.101562,31.49218 31.496094,31.49218 8.859375,0 16.859375,-3.65625 22.582031,-9.54297 0.285156,-0.29296 0.675781,-0.46093 1.085937,-0.46093 0.410157,0 0.800782,0.16797 1.085938,0.46093 5.726562,5.88672 13.726566,9.54297 22.585936,9.54297 m 0,-12.53515 c -10.46875,0 -18.95703,-8.48828 -18.95703,-18.95703 0,-10.46875 8.48828,-18.95703 18.95703,-18.95703 10.46875,0 18.95313,8.48828 18.95313,18.95703 0,10.46875 -8.48438,18.95703 -18.95313,18.95703"
       style="clip-rule:nonzero;fill:#eb7302;fill-opacity:1;fill-rule:nonzero;stroke:none" />
    <path
       inkscape:connector-curvature="0"
       id="path650"
       d="m 163.77734,125.06641 c -2.82812,-14.49219 -15.58984,-25.433597 -30.91015,-25.433597 -3.70313,0 -7.25,0.640627 -10.55078,1.812497 6.07031,2.16016 11.28515,6.125 14.98828,11.25391 8.32812,2 14.51953,9.48828 14.51953,18.42969 0,10.46875 -8.48828,18.95703 -18.95703,18.95703 -10.46875,0 -18.95703,-8.48828 -18.95703,-18.95703 0,-6.5625 3.33593,-12.34766 8.40234,-15.75 -3.01172,-2.02344 -6.64062,-3.20703 -10.54297,-3.20703 -1.53125,0 -3.01562,0.18359 -4.4414,0.52343 -3.7461,5.1836 -5.95704,11.55078 -5.95704,18.4336 0,17.39062 14.10157,31.49218 31.4961,31.49218 15.32031,0 28.08203,-10.9375 30.91015,-25.43359 v -12.12109"
       style="clip-rule:nonzero;fill:#b0b0b3;fill-opacity:1;fill-rule:nonzero;stroke:none" />
    <path
       inkscape:connector-curvature="0"
       id="path652"
       d="m 165.85547,149.29297 c -0.83594,0 -1.51172,-0.67578 -1.51172,-1.51563 v -45.64453 c 0,-0.83593 -0.67969,-1.51562 -1.51563,-1.51562 h -9.50781 c -0.83984,0 -1.51562,0.67969 -1.51562,1.51562 v 58.1836 c 0,0.83593 0.67578,1.51562 1.51562,1.51562 h 31.85938 c 0.83593,0 1.51172,-0.67969 1.51172,-1.51562 v -9.50782 c 0,-0.83593 -0.67579,-1.51562 -1.51172,-1.51562 h -19.32422"
       style="clip-rule:nonzero;fill:#eb7302;fill-opacity:1;fill-rule:nonzero;stroke:none" />
  </g>
</svg>
