<?xml version="1.0" encoding="UTF-8" standalone="no"?>
<svg
   viewBox="0 0 177.778 100"
   version="1.1"
   id="svg28"
   sodipodi:docname="oi-colored.svg"
   inkscape:version="1.2.1 (9c6d41e410, 2022-07-14)"
   xml:space="preserve"
   xmlns:inkscape="http://www.inkscape.org/namespaces/inkscape"
   xmlns:sodipodi="http://sodipodi.sourceforge.net/DTD/sodipodi-0.dtd"
   xmlns="http://www.w3.org/2000/svg"
   xmlns:svg="http://www.w3.org/2000/svg"><defs
     id="defs32" /><sodipodi:namedview
     id="namedview30"
     pagecolor="#ffffff"
     bordercolor="#000000"
     borderopacity="0.25"
     inkscape:showpageshadow="2"
     inkscape:pageopacity="0.0"
     inkscape:pagecheckerboard="0"
     inkscape:deskcolor="#d1d1d1"
     showgrid="false"
     inkscape:zoom="5.8468819"
     inkscape:cx="72.517285"
     inkscape:cy="50.368727"
     inkscape:window-width="1920"
     inkscape:window-height="1012"
     inkscape:window-x="0"
     inkscape:window-y="32"
     inkscape:window-maximized="1"
     inkscape:current-layer="Camada_x0020_1" /><g
     id="g6452"
     transform="matrix(0.65586586,0,0,0.65586586,16.866729,-42.165807)"><g
       transform="matrix(0.49302879,0,0,0.49302879,-74.721133,-103.63199)"
       id="layer1-0"
       style="fill:#8c98a4;fill-opacity:1"><g
         transform="matrix(3.543307,0,0,3.543307,6.5289884,3.3058122)"
         id="g3006"
         style="fill:#8c98a4;fill-opacity:1;fill-rule:evenodd"><g
           id="Camada_x0020_1"
           inkscape:label="Camada 1"
           inkscape:groupmode="layer"
           style="fill:#8c98a4;fill-opacity:1"><metadata
             id="CorelCorpID_0Corel-Layer" /><ellipse
             cx="108.349"
             cy="133.493"
             rx="2.5136001"
             ry="2.5576501"
             id="ellipse2995"
             style="fill:#8c98a4;fill-opacity:1" /><path
             d="m 78.1567,138.839 c 0.6609,15.6935 16.1276,21.8201 16.1276,21.8201 6.5778,3.009 11.0675,3.3019 15.238,3.6695 7.0248,0.4124 9.4775,-2.3617 7.6224,-9.1601 -0.2452,-1.364 -0.4169,-2.739 -0.4169,-2.739 -0.8699,-2.9316 -0.4419,-7.5155 -0.4419,-7.5155 0,-3.8806 6.8791,-8.0257 6.8791,-8.0257 10.5833,-8.4667 4.5646,-16.6031 4.5646,-16.6031 -8.1168,-10.7163 -30.3502,-8.0246 -40.8391,0.6944 -2.0071,1.6684 -2.9509,2.8149 -4.3702,4.5123 -2.8471,3.4048 -4.5387,9.1891 -4.3636,13.3471 z m 18.0207,4.2231 c 8.9955,-0.1037 10.3772,14.9482 0.1764,15.2577 -10.3183,-0.7779 -8.3487,-15.1242 -0.1764,-15.2577 z m 11.7299,15.3459 c -3.6768,-0.8944 -2.883,-15.1526 0,-15.2577 3.4402,-0.3245 3.8372,14.8597 0,15.2577 z m 0.0662,-22.2473 c 1.3882,0 2.5136,1.145 2.5136,2.5576 0,1.4127 -1.1254,2.5577 -2.5136,2.5577 -1.3882,0 -2.5136,-1.145 -2.5136,-2.5577 0,-1.4126 1.1254,-2.5576 2.5136,-2.5576 z"
             id="path2997"
             style="fill:#fdb813;fill-opacity:1" /><path
             d="m 96.132981,146.89079 c -3.6161,0.1512 -4.0129,8.0154 0.1323,8.0258 4.086899,0.062 4.219199,-8.2431 -0.1323,-8.0258 z"
             id="path2999"
             style="fill:#fdb813;fill-opacity:1;stroke:none;stroke-width:0.2" /></g></g></g></g></svg>
