<?xml version="1.0" encoding="UTF-8" standalone="no"?>
<svg
   viewBox="0 0 177.778 100"
   version="1.1"
   id="svg28"
   sodipodi:docname="omni-colored.svg"
   inkscape:version="1.2.1 (9c6d41e410, 2022-07-14)"
   xmlns:inkscape="http://www.inkscape.org/namespaces/inkscape"
   xmlns:sodipodi="http://sodipodi.sourceforge.net/DTD/sodipodi-0.dtd"
   xmlns="http://www.w3.org/2000/svg"
   xmlns:svg="http://www.w3.org/2000/svg">
  <defs
     id="defs32" />
  <sodipodi:namedview
     id="namedview30"
     pagecolor="#ffffff"
     bordercolor="#000000"
     borderopacity="0.25"
     inkscape:showpageshadow="2"
     inkscape:pageopacity="0.0"
     inkscape:pagecheckerboard="0"
     inkscape:deskcolor="#d1d1d1"
     showgrid="false"
     inkscape:zoom="5.8468819"
     inkscape:cx="71.320065"
     inkscape:cy="46.263975"
     inkscape:window-width="1920"
     inkscape:window-height="1012"
     inkscape:window-x="0"
     inkscape:window-y="32"
     inkscape:window-maximized="1"
     inkscape:current-layer="g6452" />
  <g
     id="g6452"
     transform="matrix(0.65586586,0,0,0.65586586,16.866729,-42.165807)">
    <g
       id="g4189"
       transform="matrix(0.59943109,0,0,0.59943109,103.16418,84.521379)">
      <path
         d="m -117.84702,81.604766 c -1.40781,-15.466577 12.34866,-30.000037 38.442412,-41.406841 -1.872538,2.65908 -2.18378,4.687951 -2.966054,7.651971 -9.844696,47.511748 75.9492693,77.202774 120.95217,74.545734 -25.934571,7.65847 -149.705408,7.34073 -156.428528,-40.790864"
         style="fill:#e0561e;fill-opacity:1;fill-rule:evenodd;stroke:none;stroke-width:0.203294"
         id="path44" />
      <path
         d="m 138.9069,62.541925 c 1.41289,15.466577 -12.34399,30.008168 -38.43672,41.414975 1.87437,-2.66315 2.18134,-4.689986 2.96809,-7.660106 C 113.27768,48.791146 27.489809,19.094017 -17.522443,21.757163 8.4222928,14.101126 132.19211,14.408099 138.9069,62.541925"
         style="fill:#e0561e;fill-opacity:1;fill-rule:evenodd;stroke:none;stroke-width:0.203294"
         id="path46" />
      <path
         d="M 71.399194,63.481141 H 59.843986 L 55.62971,87.68731 h 11.242136 l 4.527348,-24.206169"
         style="fill:#263b7c;fill-opacity:1;fill-rule:evenodd;stroke:none;stroke-width:0.203294"
         id="path48" />
      <path
         d="m 73.430097,53.178222 c 0,-2.97012 -2.341942,-5.001023 -5.155525,-5.001023 -3.901205,0 -7.182363,3.279126 -7.182363,7.338899 0,2.809517 2.026837,4.844486 4.84042,4.844486 4.069938,0 7.497468,-3.281158 7.497468,-7.182362"
         style="fill:#263b7c;fill-opacity:1;fill-rule:evenodd;stroke:none;stroke-width:0.203294"
         id="path50" />
      <path
         d="m 54.385553,69.726321 c 0,-4.842454 -3.748734,-7.02786 -8.280149,-7.02786 -3.124622,0 -5.466564,1.097785 -6.407814,2.030903 L 38.921009,63.481141 H 28.146448 L 23.773602,87.68731 h 11.551143 c 0,0 3.047371,-15.334436 3.331982,-17.109189 0.03863,-0.239887 0.08335,-0.465543 0.134174,-0.683067 0.329335,-1.370199 1.386462,-2.195571 2.596059,-2.195571 1.071357,0 1.947553,0.951414 1.752391,2.197604 -0.04879,0.313072 -0.08132,0.644441 -0.08132,0.644441 L 39.858192,87.68731 h 11.557241 l 2.809518,-16.082557 c 0.160602,-0.784713 0.160602,-1.56536 0.160602,-1.878432"
         style="fill:#263b7c;fill-opacity:1;fill-rule:evenodd;stroke:none;stroke-width:0.203294"
         id="path52" />
      <path
         d="m 22.994988,69.415281 c 0,0.624112 -0.156536,1.404759 -0.156536,2.189472 L 20.184657,87.68731 H 9.4092833 L 12.22124,71.129046 c 0,0 0.118317,-0.550925 0.131938,-1.231959 0.03009,-1.457615 -0.600529,-2.197604 -1.695469,-2.197604 -1.4047585,0 -2.6531845,1.089654 -3.1225894,4.210211 L 4.7239757,87.68731 H -5.7344636 l 2.9636141,-16.558264 c 0,-0.309006 0.1549097,-0.931084 0.1549097,-1.248222 0,-1.559262 -0.6210619,-2.181341 -2.0298865,-2.181341 -1.4015061,0 -2.3346238,1.244157 -2.8119571,4.210211 L -10.423024,87.68731 h -10.459252 l 4.212853,-24.206169 h 10.1502461 l 0.6281773,1.248223 c 0.9363703,-0.933118 3.2750598,-2.030903 6.23948712,-2.030903 3.12645228,0 5.31734738,0.941249 6.71824358,2.968086 2.3425522,-1.870301 5.1545089,-2.968086 8.4334319,-2.968086 4.219968,0 7.338289,2.030903 7.494825,6.71682"
         style="fill:#263b7c;fill-opacity:1;fill-rule:evenodd;stroke:none;stroke-width:0.203294"
         id="path54" />
      <path
         d="m -34.032729,70.578121 c -1.365117,7.477138 -4.5058,13.657264 -10.407006,13.657264 -4.565365,0 -6.067095,-4.679819 -4.884536,-13.657264 1.446841,-10.983953 7.264494,-14.681864 11.089056,-14.063852 4.873354,0.78878 5.609684,6.354958 4.202486,14.063852 z M -38.85709,52.631362 c -19.113461,0 -22.559897,13.913414 -23.196003,18.082965 -1.833708,10.298854 4.537513,17.397867 16.893088,17.60116 6.303728,0 21.048003,-1.386462 24.045161,-17.7333 0.7345,-5.862988 1.370605,-17.950825 -17.742246,-17.950825"
         style="fill:#263b7c;fill-opacity:1;fill-rule:evenodd;stroke:none;stroke-width:0.203294"
         id="path56" />
      <path
         d="m -109.5992,158.85267 c 2.64445,0 3.90141,-1.5493 3.90141,-3.73877 0,-2.19415 -1.35393,-3.74101 -4.06099,-3.74101 h -4.7711 v 7.47978 z m -0.54564,-10.37834 c 2.02969,0 2.99533,-1.12848 2.99533,-2.77313 0,-1.64301 -0.93291,-2.77068 -3.06038,-2.77068 h -4.31999 v 5.54381 z m -7.80058,-8.54239 h 7.96017 c 4.09291,0 6.18785,2.4816 6.18785,5.51129 0,2.09555 -1.06262,3.57735 -2.96524,4.2222 2.93271,0.67656 4.48201,2.77313 4.48201,5.57634 0,3.7713 -2.51413,6.60948 -7.12401,6.60948 h -8.54078 v -21.91931"
         style="fill:#263b7c;fill-opacity:1;fill-rule:nonzero;stroke:none;stroke-width:0.203294"
         id="path58" />
      <path
         d="m -94.196657,156.04702 c -1.418176,0 -2.35292,0.51616 -2.35292,1.7097 0,1.15857 0.902217,1.77252 2.578576,1.77252 1.900998,0 3.254934,-0.93556 3.254934,-2.41737 v -1.06485 z m 0.773532,-5.31653 c -1.772517,0 -2.803215,0.77251 -3.546457,1.61028 l -1.868675,-1.90262 c 1.192724,-1.41757 2.804842,-2.41574 5.672502,-2.41574 3.255747,0 5.704825,1.83615 5.704825,5.8329 v 7.99594 h -3.255137 l 0.09778,-1.93779 c -0.968084,1.45172 -2.257779,2.22607 -4.255748,2.22607 -2.674531,0 -4.866239,-1.25636 -4.866239,-4.28747 0,-2.80321 2.257575,-4.02928 5.31816,-4.05957 h 3.706043 c 0,-2.16162 -0.967881,-3.062 -2.707058,-3.062"
         style="fill:#263b7c;fill-opacity:1;fill-rule:nonzero;stroke:none;stroke-width:0.203294"
         id="path60" />
      <path
         d="m -83.466414,148.31149 h 3.25412 l -0.06424,2.51495 c 0.837772,-1.77313 2.545845,-2.80403 4.577358,-2.80403 2.997768,0 5.059978,2.12666 5.059978,5.80037 v 8.02847 h -3.254324 v -7.77049 c 0,-1.93291 -0.90364,-3.06363 -2.804639,-3.06363 -2.126654,0 -3.514133,1.29112 -3.514133,3.48303 v 7.35109 h -3.25412 v -13.53976"
         style="fill:#263b7c;fill-opacity:1;fill-rule:nonzero;stroke:none;stroke-width:0.203294"
         id="path62" />
      <path
         d="m -67.323683,155.08137 c 0,-4.02927 3.093112,-7.05896 7.218549,-7.05896 2.547472,0 4.191305,0.96565 5.480999,2.57858 l -2.322019,1.86766 c -0.644034,-0.93455 -1.771704,-1.57695 -3.15898,-1.57695 -2.416551,0 -3.865831,1.77231 -3.865831,4.18967 0,2.41737 1.44928,4.18968 3.865831,4.18968 1.611915,0 2.579186,-0.67737 3.321005,-1.51433 l 2.224235,1.93291 c -1.322222,1.51434 -2.933527,2.4499 -5.54524,2.4499 -4.125437,0 -7.218549,-2.99635 -7.218549,-7.05816"
         style="fill:#263b7c;fill-opacity:1;fill-rule:nonzero;stroke:none;stroke-width:0.203294"
         id="path64" />
      <path
         d="m -41.05754,155.08137 c 0,-2.48241 -1.514334,-4.22464 -3.931698,-4.22464 -2.416551,0 -3.963412,1.74223 -3.963412,4.22464 0,2.47998 1.546861,4.2525 3.963412,4.2525 2.417364,0 3.931698,-1.77252 3.931698,-4.2525 z m -11.247015,0 c 0,-4.02927 3.221594,-7.05896 7.315317,-7.05896 4.12625,0 7.283603,3.02969 7.283603,7.05896 0,4.02705 -3.157353,7.05816 -7.283603,7.05816 -4.093723,0 -7.315317,-3.03111 -7.315317,-7.05816"
         style="fill:#263b7c;fill-opacity:1;fill-rule:nonzero;stroke:none;stroke-width:0.203294"
         id="path66" />
      <path
         d="m -16.791806,144.44261 c 0,-1.28888 -0.8703,-2.09168 -2.09555,-2.09168 -1.257981,0 -2.159995,0.83533 -2.159995,2.12665 0,1.12604 0.516163,1.93292 1.225251,2.80566 l 0.353324,0.41837 c 1.774143,-1.00223 2.67697,-1.96788 2.67697,-3.259 z m -3.933934,6.64201 c -2.35231,1.22363 -3.448876,2.54666 -3.448876,4.60826 0,2.19171 1.418989,3.48059 4.189678,3.48059 1.708886,0 3.25595,-0.57979 4.479574,-1.67473 z m 7.091287,3.7713 c 0.548893,-1.32141 0.870503,-2.90344 0.870503,-4.77191 h 3.0603822 c 0,2.87071 -0.7082752,5.35069 -1.8676582,7.28442 l 3.6418014,4.48282 h -4.0292794 l -1.675749,-2.06403 c -1.7406,1.51453 -3.933121,2.35231 -6.350485,2.35231 -4.832899,0 -7.702185,-2.54768 -7.702185,-6.2212 0,-3.38219 1.965443,-5.0616 5.350891,-6.79996 -1.289695,-1.57959 -1.838384,-3.0614 -1.838384,-4.6107 0,-2.67291 1.999596,-4.83371 5.222816,-4.83371 3.124826,0 5.155525,1.96544 5.155525,4.76865 0,2.1291 -1.384226,3.8388 -4.028669,5.25535 l 4.190491,5.15796"
         style="fill:#263b7c;fill-opacity:1;fill-rule:nonzero;stroke:none;stroke-width:0.203294"
         id="path68" />
      <path
         d="M 2.7642254,139.93194 H 16.398314 v 2.99858 H 6.1787447 v 8.79814 h 9.2840123 v 3.02948 H 6.1787447 v 7.09311 H 2.7642254 v -21.91931"
         style="fill:#263b7c;fill-opacity:1;fill-rule:nonzero;stroke:none;stroke-width:0.203294"
         id="path70" />
      <path
         d="m 19.841498,148.31149 h 3.287664 v 13.53976 h -3.287664 z m -0.516163,-5.2531 c 0,-1.22363 0.999798,-2.12666 2.159995,-2.12666 1.159993,0 2.160197,0.90303 2.160197,2.12666 0,1.28888 -1.000204,2.16081 -2.160197,2.16081 -1.160197,0 -2.159995,-0.87193 -2.159995,-2.16081"
         style="fill:#263b7c;fill-opacity:1;fill-rule:nonzero;stroke:none;stroke-width:0.203294"
         id="path72" />
      <path
         d="m 27.349537,148.31149 h 3.25473 l -0.06505,2.51495 c 0.839603,-1.77313 2.547269,-2.80403 4.578172,-2.80403 2.998581,0 5.059978,2.12666 5.059978,5.80037 v 8.02847 h -3.25473 v -7.77049 c 0,-1.93291 -0.902624,-3.06363 -2.803419,-3.06363 -2.128484,0 -3.514947,1.29112 -3.514947,3.48303 v 7.35109 h -3.25473 v -13.53976"
         style="fill:#263b7c;fill-opacity:1;fill-rule:nonzero;stroke:none;stroke-width:0.203294"
         id="path74" />
      <path
         d="m 48.876296,156.04702 c -1.418989,0 -2.35414,0.51616 -2.35414,1.7097 0,1.15857 0.902624,1.77252 2.577763,1.77252 1.902828,0 3.256764,-0.93556 3.256764,-2.41737 v -1.06485 z m 0.772516,-5.31653 c -1.77272,0 -2.803419,0.77251 -3.547473,1.61028 l -1.868269,-1.90262 c 1.193334,-1.41757 2.805452,-2.41574 5.671892,-2.41574 3.256763,0 5.706451,1.83615 5.706451,5.8329 v 7.99594 h -3.25473 l 0.09555,-1.93779 c -0.967678,1.45172 -2.256559,2.22607 -4.254935,2.22607 -2.673311,0 -4.864816,-1.25636 -4.864816,-4.28747 0,-2.80321 2.256559,-4.02928 5.316127,-4.05957 h 3.708076 c 0,-2.16162 -0.967678,-3.062 -2.707871,-3.062"
         style="fill:#263b7c;fill-opacity:1;fill-rule:nonzero;stroke:none;stroke-width:0.203294"
         id="path76" />
      <path
         d="m 59.604099,148.31149 h 3.256764 l -0.06505,2.51495 c 0.83757,-1.77313 2.545236,-2.80403 4.576139,-2.80403 2.998581,0 5.062011,2.12666 5.062011,5.80037 v 8.02847 h -3.256764 v -7.77049 c 0,-1.93291 -0.902623,-3.06363 -2.803419,-3.06363 -2.126451,0 -3.512913,1.29112 -3.512913,3.48303 v 7.35109 h -3.256764 v -13.53976"
         style="fill:#263b7c;fill-opacity:1;fill-rule:nonzero;stroke:none;stroke-width:0.203294"
         id="path78" />
      <path
         d="m 75.749677,155.08137 c 0,-4.02927 3.094129,-7.05896 7.220989,-7.05896 2.545236,0 4.189881,0.96565 5.478762,2.57858 l -2.321613,1.86766 c -0.64444,-0.93455 -1.770687,-1.57695 -3.157149,-1.57695 -2.417161,0 -3.868677,1.77231 -3.868677,4.18967 0,2.41737 1.451516,4.18968 3.868677,4.18968 1.610085,0 2.577763,-0.67737 3.317751,-1.51433 l 2.226065,1.93291 c -1.321408,1.51434 -2.933526,2.4499 -5.543816,2.4499 -4.12686,0 -7.220989,-2.99635 -7.220989,-7.05816"
         style="fill:#263b7c;fill-opacity:1;fill-rule:nonzero;stroke:none;stroke-width:0.203294"
         id="path80" />
      <path
         d="m 101.69197,153.92037 c -0.28867,-1.83758 -1.41695,-3.18988 -3.673512,-3.18988 -2.095957,0 -3.54544,1.15938 -3.931698,3.18988 z m -3.319781,5.48099 c 1.772721,0 3.063631,-0.71152 3.836151,-1.45172 l 1.90079,1.99797 c -1.25635,1.25636 -2.99654,2.19192 -5.704414,2.19192 -4.641193,0 -7.637741,-2.99635 -7.637741,-7.05816 0,-4.02927 3.15715,-7.05896 7.218956,-7.05896 4.608669,0 7.220989,3.41554 6.993299,8.15492 H 94.08676 c 0.386258,1.96544 1.803214,3.22403 4.285429,3.22403"
         style="fill:#263b7c;fill-opacity:1;fill-rule:nonzero;stroke:none;stroke-width:0.203294"
         id="path82" />
      <path
         d="m 108.52264,148.31149 h 3.28726 v 13.53976 h -3.28726 z m -0.51637,-5.2531 c 0,-1.22363 1.00021,-2.12666 2.16101,-2.12666 1.15878,0 2.15898,0.90303 2.15898,2.12666 0,1.28888 -1.0002,2.16081 -2.15898,2.16081 -1.1608,0 -2.16101,-0.87193 -2.16101,-2.16081"
         style="fill:#263b7c;fill-opacity:1;fill-rule:nonzero;stroke:none;stroke-width:0.203294"
         id="path84" />
      <path
         d="m 116.02824,148.31149 h 3.25473 l -0.0325,2.54524 c 0.90263,-2.12665 2.44969,-2.80322 3.93373,-2.80322 0.96565,0 1.64262,0.2279 2.22403,0.58122 l -1.09575,2.93353 c -0.51636,-0.25818 -1.03273,-0.45355 -1.77272,-0.45355 -1.93535,0 -3.25676,1.13092 -3.25676,4.15959 v 6.57695 h -3.25473 v -13.53976"
         style="fill:#263b7c;fill-opacity:1;fill-rule:nonzero;stroke:none;stroke-width:0.203294"
         id="path86" />
      <path
         d="m 132.2714,156.04702 c -1.41899,0 -2.35414,0.51616 -2.35414,1.7097 0,1.15857 0.90262,1.77252 2.57776,1.77252 1.90283,0 3.25676,-0.93556 3.25676,-2.41737 v -1.06485 z m 0.77251,-5.31653 c -1.77272,0 -2.80342,0.77251 -3.54544,1.61028 l -1.86827,-1.90262 c 1.1913,-1.41757 2.80342,-2.41574 5.6719,-2.41574 3.25473,0 5.70441,1.83615 5.70441,5.8329 v 7.99594 h -3.25473 l 0.0956,-1.93779 c -0.96768,1.45172 -2.25656,2.22607 -4.2529,2.22607 -2.67534,0 -4.86685,-1.25636 -4.86685,-4.28747 0,-2.80321 2.25656,-4.02928 5.31613,-4.05957 h 3.70807 c 0,-2.16162 -0.96767,-3.062 -2.70787,-3.062"
         style="fill:#263b7c;fill-opacity:1;fill-rule:nonzero;stroke:none;stroke-width:0.203294"
         id="path88" />
    </g>
  </g>
</svg>
