<?xml version="1.0" encoding="UTF-8" standalone="no"?>
<svg
   viewBox="0 0 177.778 100"
   version="1.1"
   id="svg28"
   sodipodi:docname="pagol-colored.svg"
   inkscape:version="1.2.1 (9c6d41e410, 2022-07-14)"
   xmlns:inkscape="http://www.inkscape.org/namespaces/inkscape"
   xmlns:sodipodi="http://sodipodi.sourceforge.net/DTD/sodipodi-0.dtd"
   xmlns="http://www.w3.org/2000/svg"
   xmlns:svg="http://www.w3.org/2000/svg">
  <defs
     id="defs32" />
  <sodipodi:namedview
     id="namedview30"
     pagecolor="#ffffff"
     bordercolor="#000000"
     borderopacity="0.25"
     inkscape:showpageshadow="2"
     inkscape:pageopacity="0.0"
     inkscape:pagecheckerboard="0"
     inkscape:deskcolor="#d1d1d1"
     showgrid="false"
     inkscape:zoom="5.8468819"
     inkscape:cx="69.182174"
     inkscape:cy="50.368727"
     inkscape:window-width="1920"
     inkscape:window-height="1012"
     inkscape:window-x="0"
     inkscape:window-y="32"
     inkscape:window-maximized="1"
     inkscape:current-layer="g6452" />
  <g
     id="g6452"
     transform="matrix(0.65586586,0,0,0.65586586,16.866729,-42.165807)">
    <g
       id="g14"
       transform="matrix(0.72736476,0,0,0.72736476,15.720596,93.18122)">
	<path
   class="st0"
   d="m 56.62,40.55 c 2.9,1.66 5.06,3.88 6.5,6.66 1.43,2.79 2.15,5.89 2.15,9.31 0,3.42 -0.7,6.57 -2.11,9.43 -1.41,2.87 -3.56,5.17 -6.46,6.91 -2.9,1.74 -6.5,2.61 -10.8,2.61 H 35.56 V 94.01 H 24.55 V 38.06 h 21.43 c 4.2,0 7.74,0.83 10.64,2.49 z m -2.77,15.97 c 0,-2.59 -0.77,-4.59 -2.32,-6 -1.55,-1.41 -3.86,-2.11 -6.95,-2.11 h -9.02 v 16.72 h 9.02 c 6.17,-0.01 9.27,-2.87 9.27,-8.61 z"
   id="path4"
   style="fill:#f27126" />

	<path
   class="st0"
   d="m 102.71,55.4 c 3.23,2.9 4.84,7.44 4.84,13.61 V 94 h -9.02 l -0.58,-4.55 c -1.82,1.71 -3.78,3.04 -5.88,3.97 -2.1,0.94 -4.47,1.41 -7.12,1.41 -4.03,0 -7.15,-1.14 -9.35,-3.43 -2.21,-2.29 -3.31,-5.42 -3.31,-9.39 0,-3.59 1.21,-6.48 3.64,-8.69 2.43,-2.21 5.76,-3.53 10.01,-3.97 l 11.42,-1.16 c -0.22,-2.76 -1.08,-4.79 -2.57,-6.08 -1.49,-1.29 -3.72,-1.94 -6.7,-1.94 -4.08,0 -8.22,0.61 -12.41,1.82 v -8.77 c 4.85,-1.43 9.38,-2.15 13.57,-2.15 5.75,-0.01 10.24,1.43 13.46,4.33 z M 86.95,86.31 c 1.6,0 3.31,-0.34 5.13,-1.03 1.82,-0.69 3.61,-1.7 5.38,-3.02 v -6.79 l -10.51,1.24 c -1.66,0.22 -2.95,0.74 -3.89,1.57 -0.94,0.83 -1.41,1.9 -1.41,3.23 0,3.2 1.77,4.8 5.3,4.8 z"
   id="path6"
   style="fill:#f27126" />

	<path
   class="st0"
   d="m 162.59,62.81 v 28.3 c -5.63,2.54 -11.83,3.81 -18.62,3.81 -5.52,0 -10.26,-1.17 -14.23,-3.52 -3.97,-2.34 -6.99,-5.53 -9.06,-9.56 -2.07,-4.03 -3.1,-8.55 -3.1,-13.57 v -3.39 c 0,-5.24 1.17,-9.97 3.52,-14.19 2.35,-4.22 5.59,-7.53 9.72,-9.93 4.14,-2.4 8.83,-3.6 14.07,-3.6 2.7,0 5.12,0.22 7.24,0.66 2.12,0.44 4.51,1.16 7.16,2.15 v 9.93 c -2.43,-0.83 -4.68,-1.42 -6.75,-1.78 -2.07,-0.36 -4.29,-0.54 -6.66,-0.54 -5.19,0 -9.35,1.52 -12.5,4.55 -3.14,3.04 -4.72,7.39 -4.72,13.08 v 1.99 c 0,5.41 1.45,9.68 4.35,12.83 2.9,3.15 6.99,4.72 12.29,4.72 2.37,0 4.74,-0.22 7.12,-0.66 V 72.41 h -10.26 v -9.6 z"
   id="path8"
   style="fill:#f27126" />

	<path
   class="st0"
   d="m 181.62,92.31 c -3.09,-1.79 -5.48,-4.23 -7.16,-7.32 -1.68,-3.09 -2.52,-6.59 -2.52,-10.51 v -2.23 c 0,-3.81 0.84,-7.34 2.52,-10.59 1.68,-3.25 4.08,-5.83 7.2,-7.74 3.12,-1.9 6.69,-2.86 10.72,-2.86 4.14,0 7.75,0.9 10.84,2.69 3.09,1.79 5.48,4.24 7.16,7.32 1.68,3.09 2.52,6.59 2.52,10.51 v 2.15 c 0,3.86 -0.86,7.42 -2.57,10.68 -1.71,3.26 -4.12,5.83 -7.24,7.74 -3.12,1.9 -6.69,2.86 -10.72,2.86 -4.08,-0.01 -7.66,-0.91 -10.75,-2.7 z m 17.92,-10.18 c 1.74,-2.07 2.61,-4.9 2.61,-8.48 v -1.32 c 0,-3.59 -0.84,-6.4 -2.52,-8.44 -1.68,-2.04 -4.04,-3.06 -7.08,-3.06 -3.04,0 -5.44,1.05 -7.2,3.14 -1.77,2.1 -2.65,4.88 -2.65,8.36 v 1.32 c 0,3.64 0.84,6.48 2.52,8.52 1.68,2.04 4.07,3.06 7.16,3.06 3.03,0 5.42,-1.03 7.16,-3.1 z"
   id="path10"
   style="fill:#f27126" />

	<path
   class="st0"
   d="m 223.25,35.17 h 10.92 v 58.84 h -10.92 z"
   id="path12"
   style="fill:#f27126" />

</g>
  </g>
</svg>
