<?xml version="1.0" encoding="UTF-8" standalone="no"?>
<svg
   viewBox="0 0 177.778 100"
   version="1.1"
   id="svg28"
   sodipodi:docname="smiles-colored.svg"
   inkscape:version="1.2.1 (9c6d41e410, 2022-07-14)"
   xmlns:inkscape="http://www.inkscape.org/namespaces/inkscape"
   xmlns:sodipodi="http://sodipodi.sourceforge.net/DTD/sodipodi-0.dtd"
   xmlns="http://www.w3.org/2000/svg"
   xmlns:svg="http://www.w3.org/2000/svg">
  <defs
     id="defs32" />
  <sodipodi:namedview
     id="namedview30"
     pagecolor="#ffffff"
     bordercolor="#000000"
     borderopacity="0.25"
     inkscape:showpageshadow="2"
     inkscape:pageopacity="0.0"
     inkscape:pagecheckerboard="0"
     inkscape:deskcolor="#d1d1d1"
     showgrid="false"
     inkscape:zoom="5.8468819"
     inkscape:cx="72.517285"
     inkscape:cy="50.368727"
     inkscape:window-width="1920"
     inkscape:window-height="1012"
     inkscape:window-x="0"
     inkscape:window-y="32"
     inkscape:window-maximized="1"
     inkscape:current-layer="svg28" />
  <path
     style="clip-rule:nonzero;fill:#eb7f02;fill-opacity:1;fill-rule:nonzero;stroke:none;stroke-width:0.435316"
     d="m 91.056515,33.979556 c 1.41376,0 2.56307,-1.149305 2.56307,-2.563103 0,-1.413797 -1.14931,-2.558295 -2.56307,-2.558295 -1.41386,0 -2.55838,1.144498 -2.56317,2.558295 0,1.413798 1.14931,2.563103 2.56317,2.563103 m 10.223585,22.59665 h 0.0197 c 0.98584,0 1.861,-0.250059 2.53907,-0.572254 0.68286,-0.326996 1.16371,-0.702089 1.40894,-1.038707 0.14908,-0.221194 0.24523,-0.485685 0.24523,-0.76941 0,-0.211585 -0.0481,-0.427976 -0.14908,-0.644374 -0.25003,-0.495319 -0.77901,-0.735752 -1.24546,-0.745372 -0.0862,0 -0.17309,0.0098 -0.25483,0.02877 -0.25483,0.07219 -0.43284,0.158689 -0.61073,0.216398 -0.18268,0.06254 -0.3751,0.105743 -0.70688,0.105743 -0.54338,0 -0.87047,-0.211572 -1.08678,-0.427975 -0.0382,-0.04331 -0.3703,-0.456837 -0.49538,-0.976189 -0.20189,-0.855967 -0.21641,-2.077412 -0.22602,-2.933376 0.0148,-0.312578 0.0148,-17.581054 0.0148,-18.047507 0,-0.639577 -0.32697,-1.154123 -0.783822,-1.457072 -0.45685,-0.312577 -1.03384,-0.452034 -1.606163,-0.452034 -0.5818,0 -1.16852,0.144271 -1.63017,0.452034 -0.46644,0.298134 -0.81262,0.798259 -0.80781,1.428215 v 20.442291 c 0,1.139697 0.32216,2.476548 1.16851,3.544113 0.84155,1.067559 2.216893,1.846585 4.207765,1.846585 m 9.88208,-16.835676 c 1.21185,-1.731185 2.48132,-1.93796 3.07764,-1.942779 v 0 c 0.97623,0.0098 1.96687,0.644388 2.25051,2.163975 0.0479,0.254877 0.0676,0.50493 0.0676,0.745363 0,1.048338 -0.40391,1.957205 -1.00984,2.649669 -1.44747,1.606136 -3.46235,2.062986 -5.5927,2.288988 0,-0.187533 0,-0.379881 0,-0.572243 0,-1.875443 0.25496,-3.991316 1.20706,-5.332973 m -3.19793,14.387987 c 1.58697,1.505156 3.75092,2.42365 6.45827,2.42365 h 0.0123 c 1.47148,0 2.83709,-0.254867 3.86146,-0.67805 0.50965,-0.216399 0.9377,-0.471267 1.25507,-0.774218 0.31256,-0.302957 0.52418,-0.673239 0.52418,-1.086797 0,-0.06254 0,-0.129832 -0.0197,-0.197167 -0.10095,-0.702075 -0.67807,-1.178153 -1.33214,-1.163722 -0.16348,0 -0.32697,0.02403 -0.49045,0.07692 -0.80314,0.254859 -1.57735,0.394312 -2.52466,0.394312 -0.26922,0 -0.54338,-0.0098 -0.84155,-0.03361 -2.00046,-0.158685 -3.17859,-1.360889 -3.89026,-2.591946 -0.35109,-0.610733 -0.58193,-1.226263 -0.7166,-1.697522 -0.0628,-0.206779 -0.10587,-0.389507 -0.13454,-0.528972 2.73614,-0.115354 5.10211,-0.43279 7.3382,-1.615766 1.14452,-0.639568 2.55827,-1.673463 3.28927,-3.111298 0.45684,-0.932918 0.69727,-2.005285 0.69727,-2.976668 0,-0.307768 -0.0246,-0.60591 -0.0727,-0.884816 -0.46644,-2.635233 -2.91415,-4.635704 -6.70348,-4.626093 -2.63532,0 -6.02553,1.038709 -8.09334,4.236586 -0.79342,1.245466 -1.86099,3.635461 -1.86099,6.655403 0,0.721312 0.0628,1.476296 0.20202,2.260136 0.45684,2.327479 1.46187,4.409689 3.04391,5.919665 m -46.885966,1.678281 c 0.456844,0.312573 1.033965,0.452036 1.60616,0.452036 0.581929,0 1.168522,-0.144271 1.634975,-0.452036 0.461644,-0.298156 0.807936,-0.803084 0.803135,-1.428228 0,0 0,-11.180511 0,-11.233406 v 0 c 0.02835,-0.865579 0.25963,-2.024509 0.774211,-2.933376 0.519383,-0.913682 1.26467,-1.558065 2.438117,-1.562862 0.538581,0.0049 0.908761,0.173107 1.211725,0.442401 0.452049,0.408752 0.716604,1.091608 0.855962,1.784072 0.134675,0.692477 0.149072,1.380143 0.149072,1.76965 0,0.0913 0,11.401716 0,11.704664 0,0.649207 0.3511,1.163743 0.831956,1.461886 0.485774,0.307772 1.091579,0.447235 1.697507,0.447235 0.61553,0 1.235856,-0.144271 1.731233,-0.447235 0.485657,-0.298143 0.860749,-0.798256 0.855955,-1.433029 V 43.135462 c 0.03318,-0.860787 0.264437,-2.019712 0.774211,-2.923764 0.524184,-0.913683 1.269462,-1.558065 2.438112,-1.562863 0.53859,0.0049 0.9137,0.173108 1.21654,0.442402 0.44723,0.408752 0.71659,1.096423 0.85126,1.788886 0.13936,0.692477 0.15389,1.375328 0.15389,1.764835 0,0.0913 0,10.983353 0,11.704665 0,0.649204 0.35578,1.163746 0.83663,1.461883 0.48098,0.307772 1.0917,0.447235 1.69751,0.447235 0.61552,0 1.23598,-0.144271 1.72643,-0.447235 0.49046,-0.298137 0.86555,-0.798256 0.86076,-1.433027 V 43.347046 c 0,-2.793931 -0.5482,-4.876141 -1.57244,-6.285124 -1.02916,-1.408987 -2.54865,-2.096649 -4.33762,-2.091834 -1.72632,0 -3.04392,0.831921 -3.967213,1.784071 -0.63486,0.653995 -1.091586,1.360889 -1.394543,1.918719 -0.428043,-1.120461 -1.033971,-1.995656 -1.808182,-2.611182 -0.928097,-0.73576 -2.087017,-1.091608 -3.385405,-1.091608 -2.212089,0.0049 -3.726785,1.351268 -4.654882,2.59195 v -0.110666 c 0,-0.644387 -0.322287,-1.154123 -0.779137,-1.457072 -0.456719,-0.312582 -1.029039,-0.452035 -1.601235,-0.452035 -0.586723,0 -1.17344,0.144272 -1.635092,0.452035 -0.466445,0.298151 -0.807819,0.798267 -0.807819,1.428215 0,0 0,16.460598 0,16.927051 0,0.63958 0.322162,1.15411 0.779012,1.45708 M 92.670255,35.9943 c -0.45685,-0.312582 -1.02905,-0.452035 -1.60617,-0.452035 -0.58191,0 -1.16852,0.144272 -1.63016,0.452035 -0.46645,0.298151 -0.80794,0.798267 -0.80794,1.428215 0,0 0,16.460598 0,16.927051 0,0.63958 0.32229,1.15411 0.77913,1.45708 0.45673,0.31256 1.03384,0.452036 1.60604,0.452036 0.58192,0 1.16864,-0.144271 1.63029,-0.452036 0.46645,-0.298156 0.81262,-0.803083 0.80782,-1.428227 0,0 0,-16.460585 0,-16.927047 0,-0.644387 -0.32217,-1.154123 -0.77901,-1.457072 m 50.098285,8.728005 c -0.0197,-0.115345 -0.096,-0.211585 -0.20682,-0.245247 -0.1108,-0.03356 -0.23082,-0.0049 -0.31257,0.08174 0,0 -0.0677,0.07692 -0.21149,0.221205 -0.13948,0.144251 -0.3559,0.360663 -0.63966,0.629957 -0.5722,0.548205 -1.43295,1.332046 -2.57266,2.269769 -0.80795,0.668413 -1.76005,1.413776 -2.85163,2.212042 -0.0246,-0.317374 -0.0726,-0.615529 -0.13948,-0.894435 -0.28856,-1.173357 -0.97623,-2.062978 -1.81298,-2.774687 -1.26465,-1.067566 -2.88522,-1.769654 -4.21243,-2.534249 -0.66846,-0.38471 -1.25519,-0.779022 -1.6927,-1.221445 -0.43764,-0.44722 -0.7166,-0.928108 -0.80315,-1.524394 -0.0197,-0.110548 -0.0246,-0.226015 -0.0246,-0.341416 0,-0.615531 0.23562,-1.259914 0.73568,-1.745612 0.26936,-0.259674 1.07238,-0.783841 2.20729,-0.783841 1.40895,0 2.6016,0.615531 3.27006,0.615531 0.75488,0.01436 1.40894,-0.427984 1.60603,-1.15893 0.0382,-0.144267 0.0579,-0.293336 0.0579,-0.437604 0,-0.831921 -0.69247,-1.606136 -1.63497,-1.841772 0,0 -0.85115,-0.288531 -2.6496,-0.288531 -2.50545,0.0049 -4.55885,0.620336 -6.00141,1.702328 -1.44268,1.081979 -2.25542,2.640039 -2.25542,4.428912 0,0.490504 0.0627,1.00024 0.18282,1.519601 0.54338,2.207245 2.71694,3.404634 4.7222,4.47701 1.00985,0.533779 1.99568,1.038708 2.73136,1.582099 0.7454,0.548213 1.21665,1.115646 1.31772,1.779274 0.0148,0.115345 0.0234,0.226002 0.0234,0.336598 0,0.605919 -0.24522,1.16855 -0.76461,1.606159 -0.52418,0.437596 -1.35133,0.745358 -2.51984,0.764595 h -0.1108 c -1.2744,0.0049 -2.36598,-0.365469 -3.08245,-0.678046 -0.31256,-0.149069 -0.63486,-0.221196 -0.9377,-0.221196 -0.7598,-0.0098 -1.39467,0.509735 -1.49561,1.26472 -0.0123,0.07219 -0.0148,0.144267 -0.0148,0.21639 0,0.543407 0.28857,0.990625 0.68288,1.336857 0.59633,0.519351 1.44267,0.870399 2.2457,1.106029 -8.85784,4.428919 -21.15882,8.429855 -36.715355,8.429855 v 0.0052 -0.0052 c -15.705582,0 -28.097905,-4.077872 -36.970265,-8.559696 1.827387,-0.346227 3.303667,-1.08199 4.404972,-2.082221 1.558031,-1.408978 2.351447,-3.327697 2.346646,-5.318552 0,-0.452035 -0.03808,-0.913681 -0.120643,-1.375328 -0.278841,-1.529204 -1.11079,-2.741028 -2.183158,-3.731643 -1.606167,-1.490735 -3.75571,-2.534249 -5.549364,-3.582578 -0.894489,-0.524153 -1.702308,-1.04832 -2.298634,-1.606137 -0.601179,-0.557825 -0.985875,-1.144498 -1.101234,-1.803312 -0.03331,-0.177922 -0.05298,-0.365468 -0.05298,-0.553019 0,-0.846348 0.32697,-1.7504 1.048368,-2.442872 0.716473,-0.692469 1.836983,-1.192593 3.486354,-1.197398 0.894489,0 1.94274,0.149077 3.154596,0.500115 0.351093,0.100946 0.673256,0.153883 0.971419,0.153883 0.831831,0.01436 1.452287,-0.44722 1.702308,-1.106025 0.0911,-0.235631 0.139482,-0.471267 0.139482,-0.697278 0,-0.56745 -0.298156,-1.043523 -0.716597,-1.380125 -0.418323,-0.336621 -0.956904,-0.562644 -1.524416,-0.682865 -1.129995,-0.22602 -2.356248,-0.379904 -3.645048,-0.3847 -0.01235,0 -0.02345,0 -0.03318,0 -3.443144,0 -5.943799,0.966568 -7.578773,2.409222 -1.639769,1.437835 -2.399577,3.342123 -2.399577,5.159867 0,0.403932 0.03815,0.803064 0.110793,1.192588 0.504986,2.654469 2.702678,4.35197 4.943567,5.727299 2.250505,1.370509 4.597144,2.481349 5.486831,3.736456 0.485651,0.668418 0.716473,1.476296 0.716473,2.255339 0,0.793453 -0.245232,1.548436 -0.692467,2.087029 -0.846353,1.019463 -2.442793,1.70713 -4.159629,1.70713 -1.086771,0 -2.212082,-0.269295 -3.241128,-0.880028 -0.05794,-0.0384 -0.211611,-0.120269 -0.226021,-0.129824 -2.466923,-1.601348 -4.452985,-3.111315 -5.953277,-4.347169 -1.139715,-0.937723 -1.995664,-1.721564 -2.56799,-2.26977 -0.28843,-0.269294 -0.504849,-0.485706 -0.644338,-0.629956 -0.144277,-0.144267 -0.211611,-0.221205 -0.211611,-0.221205 -0.08125,-0.08657 -0.201891,-0.115355 -0.312573,-0.08174 -0.105868,0.03378 -0.187488,0.129832 -0.201891,0.245247 -0.06271,0.427999 -0.105868,0.966577 -0.105868,1.591719 0,0.04816 0,0.09612 0,0.144272 v 0.04331 c 0.02959,1.620577 0.577115,2.870879 2.053402,4.236573 0.355908,0.360671 20.158583,20.495201 51.925671,20.500002 31.771895,-0.0052 51.569765,-20.139331 51.925665,-20.500001 1.47629,-1.365694 2.02447,-2.615997 2.05328,-4.236573 v -0.187533 c 0,-0.625152 -0.0431,-1.163736 -0.10094,-1.591729"
     id="path9955"
     inkscape:connector-curvature="0" />
</svg>
