<?xml version="1.0" encoding="UTF-8" standalone="no"?>
<svg
   viewBox="0 0 177.778 100"
   version="1.1"
   id="svg28"
   sodipodi:docname="vivo-colored.svg"
   inkscape:version="1.2.1 (9c6d41e410, 2022-07-14)"
   xmlns:inkscape="http://www.inkscape.org/namespaces/inkscape"
   xmlns:sodipodi="http://sodipodi.sourceforge.net/DTD/sodipodi-0.dtd"
   xmlns="http://www.w3.org/2000/svg"
   xmlns:svg="http://www.w3.org/2000/svg">
  <defs
     id="defs32" />
  <sodipodi:namedview
     id="namedview30"
     pagecolor="#ffffff"
     bordercolor="#000000"
     borderopacity="0.25"
     inkscape:showpageshadow="2"
     inkscape:pageopacity="0.0"
     inkscape:pagecheckerboard="0"
     inkscape:deskcolor="#d1d1d1"
     showgrid="false"
     inkscape:zoom="5.8468819"
     inkscape:cx="72.517285"
     inkscape:cy="50.368727"
     inkscape:window-width="1920"
     inkscape:window-height="1012"
     inkscape:window-x="0"
     inkscape:window-y="32"
     inkscape:window-maximized="1"
     inkscape:current-layer="g11139" />
  <g
     id="g6452"
     transform="matrix(0.65586586,0,0,0.65586586,16.866729,-42.165807)">
    <g
       transform="matrix(0.49302879,0,0,0.49302879,-74.721133,-103.63199)"
       id="layer1-0"
       style="fill:#8c98a4;fill-opacity:1">
      <g
         transform="matrix(3.543307,0,0,3.543307,6.5289884,3.3058122)"
         id="g3006"
         style="fill:#8c98a4;fill-opacity:1;fill-rule:evenodd">
        <g
           id="Camada_x0020_1"
           inkscape:label="Camada 1"
           inkscape:groupmode="layer"
           style="fill:#8c98a4;fill-opacity:1">
          <metadata
             id="CorelCorpID_0Corel-Layer" />
          <g
             data-name="Capa 2"
             id="g11139"
             transform="matrix(0.18509206,0,0,0.18509206,46.401575,120.9388)">
            <g
               data-name="Layer 1"
               id="g11137"
               style="fill:#78009d;fill-opacity:1">
              <path
                 class="cls-1"
                 d="M 540,1.29 A 36.41,36.41 0 0 1 583.92,24 c 4.56,12.55 1.26,27.5 -7.9,37.15 -3.08,3.38 -7.31,5.34 -10.69,8.34 -2.29,1.88 -1.47,5.93 1.2,7 1.81,1 3.88,0.17 5.77,-0.12 9.79,-2.27 19.54,-4.74 29.34,-7 a 13.42,13.42 0 0 1 15.22,7.74 c 1.26,3.76 2,7.67 2.93,11.54 1.52,6.56 -2.74,13.86 -9.3,15.55 -9.92,2.61 -20,4.78 -29.89,7.35 -3.49,0.86 -6.86,3.4 -7.44,7.15 -0.76,3.38 1.2,6.56 3.22,9.11 q 15.15,18.86 30.3,37.71 a 13.55,13.55 0 0 1 2.39,13.07 c -1.75,5.31 -7,8 -11,11.53 -5.26,4.71 -14.24,4.2 -18.77,-1.27 -8.06,-9.62 -15.85,-19.47 -23.8,-29.18 -1.7,-2.05 -4.23,-4.13 -7.08,-3.4 a 11.79,11.79 0 0 0 -5.1,4 c -7.29,9.1 -14.7,18.11 -22,27.18 a 13.65,13.65 0 0 1 -12.7,5.8 c -5.63,-0.38 -9.3,-5.12 -13.56,-8.19 -6,-4.29 -7.19,-13.71 -2.45,-19.36 10,-12.59 20.16,-25.12 30.24,-37.66 2.16,-2.64 4.13,-5.91 3.36,-9.47 -0.49,-3.79 -4.07,-6.18 -7.5,-7.07 -9.73,-2.45 -19.5,-4.68 -29.22,-7.13 a 13.46,13.46 0 0 1 -10,-14.77 c 0.71,-3.89 1.69,-7.73 2.74,-11.54 a 13.31,13.31 0 0 1 15.28,-8.76 c 10.73,2.35 21.34,5.28 32.1,7.47 4,1.45 7.61,-3.86 4.86,-7 -2.76,-2.68 -6.37,-4.28 -9.15,-6.93 C 512.2,51.41 509.6,29.92 519.74,15.74 A 36.67,36.67 0 0 1 540,1.29 Z"
                 id="path11125"
                 style="fill:#78009d;fill-opacity:1" />
              <path
                 class="cls-1"
                 d="m 154.92,15.25 c 10.39,-3.94 23,1.47 27.35,11.69 A 21.93,21.93 0 0 1 157.8,57.44 21.89,21.89 0 0 1 140.57,38.72 c -1.51,-9.93 4.87,-20.25 14.35,-23.47 z"
                 id="path11127"
                 style="fill:#78009d;fill-opacity:1" />
              <path
                 class="cls-1"
                 d="m 9.68,72.57 c 5.78,-2.08 11.42,-6.76 17.89,-4.93 a 13.54,13.54 0 0 1 9,8.16 c 9.28,18.66 18.48,37.36 27.8,56 9.33,-19.07 18.93,-38 28.26,-57.07 2.48,-5.41 9,-8.76 14.79,-7.13 3.48,1 6.65,2.88 10,4.25 3.35,1.37 7,2.7 9,5.83 A 12.28,12.28 0 0 1 127,91 c -14.72,26.3 -29.57,52.52 -44.3,78.8 a 16,16 0 0 1 -7.55,7.2 c -4.61,2 -9.75,0.93 -14.62,1.23 a 15.06,15.06 0 0 1 -14,-7.59 Q 25.08,132.64 3.67,94.53 C 1.74,91.22 -0.39,87.68 0.06,83.68 0.28,78.25 4.81,74.2 9.68,72.57 Z"
                 id="path11129"
                 style="fill:#78009d;fill-opacity:1" />
              <path
                 class="cls-1"
                 d="m 209.65,70.74 c 4.74,-2.27 10.19,-5.1 15.44,-2.54 6.09,2.28 7.87,9 10.62,14.23 8.33,16.36 16.13,33 24.62,49.26 q 14,-28.47 28.2,-56.89 c 2.43,-5.5 9.06,-8.88 14.91,-7.17 3.43,1.07 6.57,2.86 9.88,4.22 3.06,1.4 6.53,2.47 8.64,5.28 a 12.43,12.43 0 0 1 0.91,14 q -22.31,39.62 -44.62,79.24 a 15,15 0 0 1 -13.67,7.87 c -5.51,-0.32 -11.53,1.07 -16.53,-1.94 -3.13,-1.58 -5.16,-4.54 -6.76,-7.54 Q 219.62,130.09 197.84,91.49 a 12.39,12.39 0 0 1 0,-13.31 c 2.52,-4.28 7.68,-5.33 11.81,-7.44 z"
                 id="path11131"
                 style="fill:#78009d;fill-opacity:1" />
              <path
                 class="cls-1"
                 d="m 375.12,68.58 c 11.45,-2 23.61,-0.83 34.14,4.27 a 55.58,55.58 0 1 1 -34.14,-4.27 z m 7.49,33.19 a 22,22 0 0 0 -16,11 21.88,21.88 0 0 0 20,32.62 c 11.58,-0.12 21.72,-11 20.83,-22.61 0.12,-12.56 -12.53,-23.18 -24.83,-21.01 z"
                 id="path11133"
                 style="fill:#78009d;fill-opacity:1" />
              <path
                 class="cls-1"
                 d="m 153.89,69.07 c 4.87,-0.37 9.76,-0.08 14.64,-0.17 7.23,-0.23 13.23,6.59 13.08,13.64 0.15,26.7 0,53.4 0.07,80.11 0.21,5 -1.63,10.33 -6,13.19 -5,3.63 -11.46,2 -17.19,2.38 a 13.93,13.93 0 0 1 -13.7,-7 c -2,-3.49 -1.67,-7.63 -1.68,-11.5 q 0,-38.49 0,-77 a 13.64,13.64 0 0 1 10.78,-13.65 z"
                 id="path11135"
                 style="fill:#78009d;fill-opacity:1" />
            </g>
          </g>
        </g>
      </g>
    </g>
  </g>
</svg>
